<svg width="77" height="92" viewBox="0 0 77 92" fill="none" xmlns="http://www.w3.org/2000/svg">
<path d="M70.7443 7.09665H50.0184L44.54 2.49565C41.314 -0.211449 36.6327 -0.216799 33.396 2.47425L27.8534 7.0913H6.9402C3.56435 7.0913 0.814453 9.83585 0.814453 13.2171V84.9231C0.814453 88.299 3.56435 91.0489 6.9402 91.0489H70.7443C74.1202 91.0489 76.8701 88.3043 76.8701 84.9231V13.2171C76.8701 9.8412 74.1202 7.09665 70.7443 7.09665ZM35.0063 4.4056C37.3015 2.4903 40.6345 2.49565 42.9243 4.42165L46.1076 7.09665L49.1678 9.66465L54.4161 14.0677C54.7425 14.3406 54.812 14.8167 54.5766 15.1698L54.1486 15.8118L52.4848 18.3263L52.3724 18.4975C52.2173 18.7329 51.9551 18.872 51.6769 18.872H26.1414C25.8578 18.872 25.601 18.7329 25.4459 18.4975L25.3335 18.3263L23.6697 15.8118L23.247 15.1752C23.0116 14.8221 23.0812 14.3459 23.4075 14.0731L28.6987 9.66465L31.7803 7.09665L35.0063 4.4056ZM22.3161 18.3263L23.3487 19.8832C23.9693 20.8248 25.0125 21.3865 26.1414 21.3865H51.6769C52.8058 21.3865 53.849 20.8248 54.4696 19.8832L55.5022 18.3263H62.8745C64.3939 18.3263 65.6351 19.5622 65.6351 21.0869V76.0047C65.6351 77.5241 64.3992 78.7653 62.8745 78.7653H15.5965C14.0771 78.7653 12.8359 77.5294 12.8359 76.0047V21.0869C12.8359 19.5675 14.0718 18.3263 15.5965 18.3263H22.3161ZM74.3021 84.9231C74.3021 86.8866 72.7078 88.4809 70.7443 88.4809H6.9402C4.9821 88.4809 3.38245 86.8866 3.38245 84.9231V13.2171C3.38245 11.2536 4.97675 9.6593 6.9402 9.6593H24.7718L21.7972 12.1364C20.7004 13.0512 20.3259 14.5225 20.7753 15.8118H15.5965C12.6915 15.8118 10.3214 18.1765 10.3214 21.0869V76.0047C10.3214 78.9151 12.6861 81.2798 15.5965 81.2798H62.8745C65.7849 81.2798 68.1496 78.9151 68.1496 76.0047V21.0869C68.1496 18.1819 65.7849 15.8118 62.8745 15.8118H57.0376C57.487 14.5225 57.1179 13.0512 56.0265 12.1417L53.0733 9.66465H70.7443C72.7078 9.66465 74.3021 11.259 74.3021 13.2224V84.9231Z" fill="#949FA3"/>
<path d="M45.5561 40.9782H57.936C58.6315 40.9782 59.1932 40.4164 59.1932 39.7209C59.1932 39.0254 58.6315 38.4637 57.936 38.4637H45.5561C44.8606 38.4637 44.2988 39.0254 44.2988 39.7209C44.2988 40.4164 44.8659 40.9782 45.5561 40.9782Z" fill="#949FA3"/>
<path d="M57.9367 47.8155H48.4565C47.761 47.8155 47.1992 48.3772 47.1992 49.0727C47.1992 49.7682 47.761 50.33 48.4565 50.33H57.9367C58.6322 50.33 59.1939 49.7682 59.1939 49.0727C59.1939 48.3772 58.6322 47.8155 57.9367 47.8155Z" fill="#949FA3"/>
<path d="M19.0365 31.4659C19.7321 31.4659 20.2938 30.9041 20.2938 30.2086V25.9126C20.2938 25.2171 19.7321 24.6553 19.0365 24.6553C18.341 24.6553 17.7793 25.2171 17.7793 25.9072V30.2033C17.7793 30.8988 18.3464 31.4659 19.0365 31.4659Z" fill="#949FA3"/>
<path d="M24.5522 31.4659C25.2477 31.4659 25.8094 30.9041 25.8094 30.2086V25.9126C25.8094 25.2171 25.2477 24.6553 24.5522 24.6553C23.8567 24.6553 23.2949 25.2171 23.2949 25.9126V30.2086C23.2949 30.8988 23.8567 31.4659 24.5522 31.4659Z" fill="#949FA3"/>
<path d="M30.0678 31.4659C30.7633 31.4659 31.325 30.9041 31.325 30.2086V25.9126C31.325 25.2171 30.7633 24.6553 30.0678 24.6553C29.3723 24.6553 28.8105 25.2171 28.8105 25.9126V30.2086C28.8105 30.8988 29.3723 31.4659 30.0678 31.4659Z" fill="#949FA3"/>
<path d="M35.5834 31.4659C36.2789 31.4659 36.8407 30.9041 36.8407 30.2086V25.9126C36.8407 25.2171 36.2789 24.6553 35.5834 24.6553C34.8879 24.6553 34.3262 25.2171 34.3262 25.9126V30.2086C34.3262 30.8988 34.8879 31.4659 35.5834 31.4659Z" fill="#949FA3"/>
<path d="M41.0951 31.4659C41.7906 31.4659 42.3524 30.9041 42.3524 30.2086V25.9126C42.3524 25.2171 41.7906 24.6553 41.0951 24.6553C40.3996 24.6553 39.8379 25.2171 39.8379 25.9126V30.2086C39.8379 30.8988 40.405 31.4659 41.0951 31.4659Z" fill="#949FA3"/>
<path d="M36.6928 11.6709H40.9889C41.6844 11.6709 42.2461 11.1091 42.2461 10.4136C42.2461 9.71812 41.6844 9.15637 40.9889 9.15637H36.6928C35.9973 9.15637 35.4355 9.71812 35.4355 10.4136C35.4355 11.1091 36.0026 11.6709 36.6928 11.6709Z" fill="#949FA3"/>
<path d="M46.6108 31.4659C47.3063 31.4659 47.868 30.9041 47.868 30.2086V25.9126C47.868 25.2171 47.3063 24.6553 46.6108 24.6553C45.9153 24.6553 45.3535 25.2171 45.3535 25.9126V30.2086C45.3535 30.8988 45.9153 31.4659 46.6108 31.4659Z" fill="#949FA3"/>
<path d="M52.1264 31.4659C52.8219 31.4659 53.3837 30.9041 53.3837 30.2086V25.9126C53.3837 25.2171 52.8219 24.6553 52.1264 24.6553C51.4309 24.6553 50.8691 25.2171 50.8691 25.9126V30.2086C50.8691 30.8988 51.4309 31.4659 52.1264 31.4659Z" fill="#949FA3"/>
<path d="M57.642 31.4659C58.3375 31.4659 58.8993 30.9041 58.8993 30.2086V25.9126C58.8993 25.2171 58.3375 24.6553 57.642 24.6553C56.9465 24.6553 56.3848 25.2171 56.3848 25.9126V30.2086C56.3848 30.8988 56.9465 31.4659 57.642 31.4659Z" fill="#949FA3"/>
<path d="M57.9356 57.162H41.7358C41.0403 57.162 40.4785 57.7237 40.4785 58.4192C40.4785 59.1147 41.0403 59.6765 41.7358 59.6765H57.9356C58.6311 59.6765 59.1929 59.1147 59.1929 58.4192C59.1929 57.7237 58.6311 57.162 57.9356 57.162Z" fill="#949FA3"/>
<path d="M57.9366 66.5138H21.1928C20.4973 66.5138 19.9355 67.0755 19.9355 67.771C19.9355 68.4665 20.4973 69.0283 21.1928 69.0283H57.9366C58.6321 69.0283 59.1939 68.4665 59.1939 67.771C59.1939 67.0755 58.6321 66.5138 57.9366 66.5138Z" fill="#949FA3"/>
<path d="M20.0166 52.9622H21.6216C22.0336 52.9622 22.3706 53.2992 22.3706 53.7112V55.3162C22.3706 56.9533 23.6974 58.2801 25.3345 58.2801H28.8227C30.4598 58.2801 31.7866 56.9533 31.7866 55.3162V53.7112C31.7866 53.2992 32.1237 52.9622 32.5356 52.9622H34.1406C35.7777 52.9622 37.1045 51.6354 37.1045 49.9983V46.5154C37.1045 44.8783 35.7777 43.5515 34.1406 43.5515H32.5356C32.1237 43.5515 31.7866 43.2145 31.7866 42.8025V41.1975C31.7866 39.5604 30.4598 38.2336 28.8227 38.2336H25.3345C23.6974 38.2336 22.3706 39.5604 22.3706 41.1975V42.8025C22.3706 43.2145 22.0336 43.5515 21.6216 43.5515H20.0166C18.3795 43.5515 17.0527 44.8783 17.0527 46.5154V50.0036C17.0581 51.6354 18.3849 52.9622 20.0166 52.9622ZM19.4709 46.7134C19.4709 46.3014 19.808 45.9644 20.2199 45.9644H24.0398C24.4518 45.9644 24.7888 45.6273 24.7888 45.2154V41.3955C24.7888 40.9835 25.1259 40.6465 25.5378 40.6465H28.6248C29.0367 40.6465 29.3738 40.9835 29.3738 41.3955V45.2154C29.3738 45.6273 29.7108 45.9644 30.1228 45.9644H33.9373C34.3493 45.9644 34.6863 46.3014 34.6863 46.7134V49.8003C34.6863 50.2123 34.3493 50.5493 33.9373 50.5493H30.1174C29.7055 50.5493 29.3684 50.8864 29.3684 51.2983V55.1182C29.3684 55.5302 29.0314 55.8672 28.6194 55.8672H25.5325C25.1205 55.8672 24.7835 55.5302 24.7835 55.1182V51.2983C24.7835 50.8864 24.4464 50.5493 24.0345 50.5493H20.2146C19.8026 50.5493 19.4656 50.2123 19.4656 49.8003V46.7134H19.4709Z" fill="#949FA3"/>
</svg>
