<svg width="90" height="83" viewBox="0 0 90 83" fill="none" xmlns="http://www.w3.org/2000/svg">
<path d="M88.8333 57.2693L83.0086 49.7327C83.263 48.5985 83.1411 47.3795 82.5846 46.2718L81.5246 44.1465C84.0792 44.0617 86.1303 41.9629 86.1303 39.3871V35.11C86.9518 34.3468 87.4659 33.2603 87.4659 32.0519V23.9959C87.4659 23.079 87.1585 22.1727 86.5967 21.4413L81.5034 14.864C81.7154 13.857 81.5988 12.7758 81.1059 11.7953L76.8765 3.34179C76.0709 1.73589 74.4544 0.734192 72.6577 0.734192H45.7549C43.9582 0.734192 42.3417 1.73059 41.5361 3.34179L37.3067 11.7953C36.8138 12.7758 36.7025 13.857 36.9092 14.864L35.1443 17.1483H17.649C15.6668 17.1483 13.8807 18.2507 12.9956 20.0262L8.18847 29.6404C7.63727 30.7428 7.51537 31.9671 7.76447 33.1013L1.93977 40.6379C1.31967 41.4382 0.980469 42.4346 0.980469 43.4469V52.6159C0.980469 54.4497 2.06167 56.0344 3.61987 56.7711V61.4457C3.61987 64.0692 5.75577 66.2051 8.37927 66.2051H11.4109C14.0344 66.2051 16.1703 64.0692 16.1703 61.4457V57.2057H26.871L26.818 57.2746C26.1979 58.0749 25.8587 59.0713 25.8587 60.0783V69.2473C25.8587 71.0811 26.9399 72.6658 28.4981 73.4025V78.0771C28.4981 80.7006 30.634 82.8365 33.2575 82.8365H36.2891C38.9126 82.8365 41.0485 80.7006 41.0485 78.0771V73.8371H75.7052V78.0771C75.7052 80.7006 77.8411 82.8365 80.4646 82.8365H83.4962C86.1197 82.8365 88.2556 80.7006 88.2556 78.0771V72.6499C89.1884 71.8072 89.7714 70.5935 89.7714 69.242V60.073C89.7873 59.066 89.4481 58.0696 88.8333 57.2693ZM64.9038 50.8828C65.4762 49.2557 67.0291 48.0897 68.8523 48.0897C71.1631 48.0897 73.0393 49.9659 73.0393 52.2767C73.0393 52.3774 73.034 52.4728 73.0287 52.5735H64.9038V50.8828ZM68.8523 46.2877C67.3418 46.2877 65.9585 46.8495 64.9038 47.777C63.653 48.8741 62.8633 50.4853 62.8633 52.2767C62.8633 52.3774 62.8633 52.4728 62.8686 52.5735H62.6248H39.2942C38.7165 52.5735 38.1547 52.4039 37.6724 52.0806L36.1036 51.0365C35.3616 50.5436 34.9111 49.7539 34.821 48.9165C34.7627 48.3759 34.8528 47.8141 35.1125 47.2947L35.4411 46.6375L36.7714 43.9822L37.8314 41.8675L39.6546 38.2211L39.9249 37.6858C40.2694 36.9968 40.8577 36.488 41.552 36.2389C41.6421 36.2071 41.7375 36.1806 41.8276 36.1541C42.0555 36.0958 42.294 36.0693 42.5378 36.0693H44.6048H56.2595H57.5368H60.42H73.1294C73.4739 36.0693 73.8078 36.1276 74.1205 36.2389C74.3696 36.329 74.6028 36.4509 74.8148 36.5993C75.2017 36.8696 75.525 37.2406 75.7476 37.6858L78.9647 44.12L80.5547 47.3C81.2119 48.6144 80.7879 50.2256 79.5583 51.0418L77.9895 52.0859C77.5072 52.4092 76.9454 52.5788 76.3677 52.5788H74.8413C74.8466 52.4834 74.8466 52.3827 74.8466 52.282C74.8413 48.9748 72.1542 46.2877 68.8523 46.2877ZM83.846 39.3924C83.846 40.7598 82.733 41.8728 81.3656 41.8728H80.3851L77.7775 36.6629C77.7033 36.5145 77.6238 36.3714 77.539 36.2336H83.2842C83.475 36.2336 83.6605 36.223 83.846 36.1965V39.3924ZM84.7841 22.8405C85.0385 23.1691 85.1816 23.5825 85.1816 24.0012V32.0678C85.1816 32.9211 84.6198 33.6419 83.846 33.8804C83.6711 33.9334 83.4803 33.9652 83.2895 33.9652H74.8095H74.4544C74.0251 33.8539 73.5799 33.7956 73.1241 33.7956H58.6498H57.9184C58.0032 33.573 58.0668 33.3398 58.1198 33.1119C58.3742 31.9777 58.2523 30.7587 57.6958 29.651L57.3513 28.9567H66.78C67.4107 28.9567 67.9195 28.4479 67.9195 27.8172C67.9195 27.1865 67.4107 26.6777 66.78 26.6777H56.2118L52.894 20.0368C52.8092 19.8672 52.7138 19.7029 52.6131 19.5439H75.5144C76.4472 19.5439 77.3535 19.2683 78.1326 18.7542L79.5106 17.8373C79.8286 17.6253 80.1095 17.3815 80.3586 17.1165L84.7841 22.8405ZM39.3472 12.8129L43.5766 4.35939C43.99 3.52729 44.8274 3.01319 45.7549 3.01319H72.663C73.5905 3.01319 74.4279 3.52729 74.8413 4.35939L79.0707 12.8129C79.6166 13.91 79.2615 15.2509 78.2439 15.9293L76.8659 16.8462C76.4631 17.1165 75.9967 17.2543 75.5144 17.2543H49.2953C48.9508 17.1854 48.601 17.1483 48.2406 17.1483H42.1933C41.9654 17.0794 41.7534 16.9787 41.552 16.8462L40.174 15.9293C39.1564 15.2509 38.8013 13.91 39.3472 12.8129ZM38.0646 17.1059C38.0805 17.1218 38.0964 17.1377 38.1123 17.1536H38.0275L38.0646 17.1059ZM10.2237 30.6633L15.0308 21.0544C15.529 20.058 16.5307 19.4379 17.649 19.4379H33.3847H36.2679H41.9071H48.2406C48.5109 19.4379 48.7759 19.475 49.0303 19.5439C49.8147 19.7612 50.4825 20.3018 50.8588 21.0544L53.6678 26.6724L54.8073 28.9514L55.6606 30.6633C56.18 31.7021 56.0263 32.9211 55.3373 33.7903H42.5325C42.2092 33.7903 41.8912 33.8221 41.5785 33.8751C41.4513 33.8963 41.3241 33.9281 41.2022 33.9599C40.0415 34.262 39.0239 34.9616 38.3137 35.9421H33.5861H33.2787H14.4107C13.833 35.9421 13.2712 35.7725 12.7889 35.4492L11.2201 34.4051C9.99577 33.5836 9.56647 31.9777 10.2237 30.6633ZM13.8966 61.4404C13.8966 62.8078 12.7836 63.9208 11.4162 63.9208H8.38457C7.01717 63.9208 5.90417 62.8078 5.90417 61.4404V57.2004H13.8966V61.4404ZM16.1756 54.9214V54.826H4.91307C3.95907 54.5451 3.25947 53.66 3.25947 52.6106V43.4416C3.25947 42.9328 3.42907 42.4293 3.74177 42.0318L8.89337 35.3644C9.19547 35.7142 9.55057 36.0322 9.95337 36.3025L11.5222 37.3466C12.3808 37.919 13.3772 38.2211 14.4107 38.2211H33.284H35.563H37.1053L35.8969 40.6379L34.7839 42.8639L33.0773 46.2824C33.019 46.4043 32.9607 46.5209 32.913 46.6428H25.3128C24.6821 46.6428 24.1733 47.1516 24.1733 47.7823C24.1733 48.413 24.6821 48.9218 25.3128 48.9218H32.5314C32.5473 49.1974 32.5844 49.473 32.648 49.7433L28.6412 54.932H16.1756V54.9214ZM38.7854 78.0771C38.7854 79.4445 37.6724 80.5575 36.305 80.5575H33.2734C31.906 80.5575 30.793 79.4445 30.793 78.0771V73.8371H38.7854V78.0771ZM41.0644 71.5528V71.4574H29.8019C28.8479 71.1712 28.1483 70.2861 28.1483 69.242V60.073C28.1483 59.5642 28.3179 59.0607 28.6306 58.6579L29.7595 57.1951L31.5191 54.9161L33.7822 51.9905C34.0843 52.3403 34.4394 52.6583 34.8422 52.9286L36.411 53.9727C37.2696 54.5451 38.266 54.8472 39.2995 54.8472H60.8864H63.4516H64.3261H65.561H72.1595H74.2636H76.3677C77.3959 54.8472 78.3976 54.5451 79.2562 53.9727L80.825 52.9286C81.2278 52.6583 81.5829 52.3456 81.885 51.9905L87.0366 58.6579C87.3493 59.0607 87.5189 59.5589 87.5189 60.073V69.242C87.5189 70.2861 86.8193 71.1712 85.8653 71.4574H75.7264V71.5528H41.0644ZM85.9925 78.0771C85.9925 79.4445 84.8795 80.5575 83.5121 80.5575H80.4805C79.1131 80.5575 78.0001 79.4445 78.0001 78.0771V73.8371H85.2028C85.4731 73.8371 85.7381 73.8159 85.9925 73.7682V78.0771Z" fill="#949FA3"/>
<path d="M66.4406 63.2689H50.1961C49.5654 63.2689 49.0566 63.7777 49.0566 64.4084C49.0566 65.0391 49.5654 65.5479 50.1961 65.5479H66.4406C67.0713 65.5479 67.5801 65.0391 67.5801 64.4084C67.5801 63.783 67.066 63.2689 66.4406 63.2689Z" fill="#949FA3"/>
<path d="M61.55 39.1963H59.9547H55.0946C54.4639 39.1963 53.9551 39.7051 53.9551 40.3358C53.9551 40.9665 54.4639 41.4753 55.0946 41.4753H61.55C61.603 41.4753 61.656 41.47 61.709 41.4647C62.2655 41.3905 62.6895 40.9135 62.6895 40.3358C62.6895 39.7051 62.1754 39.1963 61.55 39.1963Z" fill="#949FA3"/>
<path d="M30.2034 24.8386H30.956H33.235H36.6588C37.2895 24.8386 37.7983 24.3298 37.7983 23.6991C37.7983 23.0684 37.2895 22.5596 36.6588 22.5596H33.8445H31.2104H30.1981C29.5674 22.5596 29.0586 23.0684 29.0586 23.6991C29.0639 24.3298 29.5727 24.8386 30.2034 24.8386Z" fill="#949FA3"/>
<path d="M83.4543 64.6203V64.3924C83.4543 62.6805 82.0604 61.2919 80.3538 61.2919H74.5185C72.8066 61.2919 71.418 62.6858 71.418 64.3924V64.6203C71.418 66.3322 72.8119 67.7208 74.5185 67.7208H80.3538C82.0604 67.7261 83.4543 66.3322 83.4543 64.6203ZM73.2094 64.6203V64.3924C73.2094 63.6769 73.7924 63.0939 74.5079 63.0939H80.3432C81.0587 63.0939 81.6417 63.6769 81.6417 64.3924V64.6203C81.6417 65.3358 81.0587 65.9188 80.3432 65.9188H74.5079C73.7977 65.9241 73.2094 65.3411 73.2094 64.6203Z" fill="#949FA3"/>
<path d="M42.8401 61.2919H37.0048C35.2929 61.2919 33.9043 62.6858 33.9043 64.3924V64.6203C33.9043 66.3323 35.2982 67.7209 37.0048 67.7209H42.8454C44.5573 67.7209 45.9459 66.327 45.9459 64.6203V64.3924C45.9459 62.6805 44.552 61.2919 42.8401 61.2919ZM44.1439 64.6203C44.1439 65.3358 43.5609 65.9188 42.8454 65.9188H37.0048C36.2893 65.9188 35.7063 65.3358 35.7063 64.6203V64.3924C35.7063 63.6769 36.2893 63.0939 37.0048 63.0939H42.8454C43.5609 63.0939 44.1439 63.6769 44.1439 64.3924V64.6203Z" fill="#949FA3"/>
<path d="M17.9095 46.6375H9.90122C9.27052 46.6375 8.76172 47.1463 8.76172 47.777C8.76172 48.4077 9.27052 48.9165 9.90122 48.9165H17.9148C18.5455 48.9165 19.0543 48.4077 19.0543 47.777C19.0543 47.1463 18.5402 46.6375 17.9095 46.6375Z" fill="#949FA3"/>
<path d="M71.3164 27.8119C71.3164 28.4426 71.8252 28.9514 72.4559 28.9514H80.4695C81.1002 28.9514 81.609 28.4426 81.609 27.8119C81.609 27.1812 81.1002 26.6724 80.4695 26.6724H72.4559C71.8252 26.6724 71.3164 27.1812 71.3164 27.8119Z" fill="#949FA3"/>
<path d="M49.0574 8.40332C49.6881 8.40332 50.1969 7.89452 50.1969 7.26382V5.52012C50.1969 4.88942 49.6881 4.38062 49.0574 4.38062C48.4268 4.38062 47.918 4.88942 47.918 5.52012V7.26382C47.918 7.89452 48.4268 8.40332 49.0574 8.40332Z" fill="#949FA3"/>
<path d="M52.8739 8.40332C53.5046 8.40332 54.0134 7.89452 54.0134 7.26382V5.52012C54.0134 4.88942 53.5046 4.38062 52.8739 4.38062C52.2432 4.38062 51.7344 4.88942 51.7344 5.52012V7.26382C51.7344 7.89452 52.2432 8.40332 52.8739 8.40332Z" fill="#949FA3"/>
<path d="M56.6825 8.40332C57.3132 8.40332 57.822 7.89452 57.822 7.26382V5.52012C57.822 4.88942 57.3132 4.38062 56.6825 4.38062C56.0518 4.38062 55.543 4.88942 55.543 5.52012V7.26382C55.543 7.89452 56.0571 8.40332 56.6825 8.40332Z" fill="#949FA3"/>
<path d="M60.4989 8.40332C61.1296 8.40332 61.6384 7.89452 61.6384 7.26382V5.52012C61.6384 4.88942 61.1296 4.38062 60.4989 4.38062C59.8682 4.38062 59.3594 4.88942 59.3594 5.52012V7.26382C59.3594 7.89452 59.8682 8.40332 60.4989 8.40332Z" fill="#949FA3"/>
<path d="M64.3094 8.40332C64.9401 8.40332 65.4489 7.89452 65.4489 7.26382V5.52012C65.4489 4.88942 64.9401 4.38062 64.3094 4.38062C63.6787 4.38062 63.1699 4.88942 63.1699 5.52012V7.26382C63.1699 7.89452 63.684 8.40332 64.3094 8.40332Z" fill="#949FA3"/>
<path d="M68.1258 8.40332C68.7565 8.40332 69.2654 7.89452 69.2654 7.26382V5.52012C69.2654 4.88942 68.7565 4.38062 68.1258 4.38062C67.4951 4.38062 66.9863 4.88942 66.9863 5.52012V7.26382C66.9863 7.89452 67.4951 8.40332 68.1258 8.40332Z" fill="#949FA3"/>
</svg>
