<svg width="114" height="115" viewBox="0 0 114 115" fill="none" xmlns="http://www.w3.org/2000/svg">
<path d="M65.8011 52.7563C64.8891 53.6626 63.4128 53.6626 62.5122 52.7563C62.2671 52.5055 62.0847 52.2205 61.9764 51.9013V51.8785C61.6743 51.0634 61.8624 50.1286 62.5122 49.4674C63.4128 48.5611 64.8834 48.5611 65.8011 49.4674C66.1944 49.8664 66.4224 50.368 66.4623 50.881C66.5478 51.5593 66.3141 52.2433 65.8011 52.7563Z" fill="#E2D1C0"/>
<path d="M50.7308 52.7563C49.8188 53.6626 48.3425 53.6626 47.4419 52.7563C47.1968 52.5055 47.0144 52.2205 46.9061 51.9013V51.8785C46.604 51.0634 46.7921 50.1286 47.4419 49.4674C48.3425 48.5611 49.8131 48.5611 50.7308 49.4674C51.1241 49.8664 51.3521 50.368 51.392 50.881C51.4775 51.5593 51.2438 52.2433 50.7308 52.7563Z" fill="#E2D1C0"/>
<path d="M50.3764 52.4029C50.8096 51.9697 50.9806 51.3883 50.8837 50.8297C50.8381 50.4649 50.6557 50.1058 50.3764 49.8208C50.1028 49.5358 49.7437 49.3705 49.3789 49.3135C48.826 49.2166 48.2332 49.3876 47.8 49.8208C47.0875 50.5333 47.0875 51.6847 47.8 52.3972C48.5125 53.1154 49.6696 53.1154 50.3764 52.4029Z" fill="#949FA3"/>
<path d="M32.3202 88.9399C32.2575 88.9228 32.1948 88.9171 32.1378 88.9171C32.0751 88.9171 32.0124 88.9228 31.9554 88.9399C31.602 89.014 31.3398 89.3332 31.3398 89.7151C31.3398 90.154 31.6932 90.5131 32.1378 90.5131C32.5767 90.5131 32.9301 90.154 32.9301 89.7151C32.9301 89.3332 32.6679 89.0254 32.3202 88.9399Z" fill="#949FA3"/>
<path d="M36.8515 88.9399C36.7888 88.9228 36.7261 88.9171 36.6691 88.9171C36.6121 88.9171 36.5437 88.9228 36.4867 88.9399C36.1333 89.0254 35.8711 89.3332 35.8711 89.7151C35.8711 90.154 36.2302 90.5131 36.6691 90.5131C37.108 90.5131 37.4671 90.154 37.4671 89.7151C37.4671 89.3332 37.2049 89.0254 36.8515 88.9399Z" fill="#949FA3"/>
<path d="M41.3827 88.9399C41.32 88.9228 41.2573 88.9171 41.2003 88.9171C41.1376 88.9171 41.0749 88.9228 41.0179 88.9399C40.6645 89.0254 40.4023 89.3332 40.4023 89.7151C40.4023 90.154 40.7614 90.5131 41.2003 90.5131C41.6449 90.5131 41.9983 90.154 41.9983 89.7151C41.9983 89.3332 41.7361 89.0197 41.3827 88.9399Z" fill="#949FA3"/>
<path d="M45.9257 88.9399C45.863 88.9228 45.8003 88.9171 45.7433 88.9171C45.6863 88.9171 45.6179 88.9228 45.5609 88.9399C45.2075 89.014 44.9453 89.3332 44.9453 89.7151C44.9453 90.154 45.2987 90.5131 45.7433 90.5131C46.1822 90.5131 46.5356 90.154 46.5356 89.7151C46.5299 89.3332 46.2677 89.0254 45.9257 88.9399Z" fill="#949FA3"/>
<path d="M50.4548 88.9399C50.3921 88.9228 50.3294 88.9171 50.2724 88.9171C50.2268 88.9171 50.1698 88.9228 50.1242 88.9342C50.1071 88.9342 50.1014 88.9342 50.0843 88.9399C49.7309 89.0254 49.4688 89.3332 49.4688 89.7151C49.4688 90.154 49.8278 90.5131 50.2667 90.5131C50.7056 90.5131 51.0647 90.154 51.0647 89.7151C51.0647 89.3332 50.8082 89.0254 50.4548 88.9399Z" fill="#949FA3"/>
<path d="M54.9882 88.9399C54.9255 88.9228 54.8628 88.9171 54.8058 88.9171C54.7431 88.9171 54.6804 88.9228 54.6234 88.9399C54.27 89.0254 54.0078 89.3332 54.0078 89.7151C54.0078 90.154 54.3669 90.5131 54.8058 90.5131C55.2504 90.5131 55.6038 90.154 55.6038 89.7151C55.5981 89.3332 55.3416 89.0197 54.9882 88.9399Z" fill="#949FA3"/>
<path d="M59.5253 88.9399C59.4626 88.9228 59.3999 88.9171 59.3429 88.9171C59.2859 88.9171 59.2175 88.9228 59.1605 88.9399C58.8071 89.014 58.5449 89.3332 58.5449 89.7151C58.5449 90.154 58.8983 90.5131 59.3429 90.5131C59.7818 90.5131 60.1352 90.154 60.1352 89.7151C60.1295 89.3332 59.873 89.0254 59.5253 88.9399Z" fill="#949FA3"/>
<path d="M64.0566 88.9399C63.9939 88.9228 63.9312 88.9171 63.8742 88.9171C63.8115 88.9171 63.7488 88.9228 63.6918 88.9399C63.3384 89.0254 63.0762 89.3332 63.0762 89.7151C63.0762 90.154 63.4353 90.5131 63.8742 90.5131C64.3131 90.5131 64.6722 90.154 64.6722 89.7151C64.6722 89.3332 64.41 89.0254 64.0566 88.9399Z" fill="#949FA3"/>
<path d="M68.5878 88.9399C68.5251 88.9228 68.4624 88.9171 68.4054 88.9171C68.3484 88.9171 68.28 88.9228 68.223 88.9399C67.8696 89.0254 67.6074 89.3332 67.6074 89.7151C67.6074 90.154 67.9665 90.5131 68.4054 90.5131C68.85 90.5131 69.2034 90.154 69.2034 89.7151C69.2034 89.3332 68.9412 89.0197 68.5878 88.9399Z" fill="#949FA3"/>
<path d="M73.1249 88.9399C73.0622 88.9228 72.9995 88.9171 72.9425 88.9171C72.8798 88.9171 72.8171 88.9228 72.7601 88.9399C72.4067 89.014 72.1445 89.3332 72.1445 89.7151C72.1445 90.154 72.4979 90.5131 72.9425 90.5131C73.3814 90.5131 73.7348 90.154 73.7348 89.7151C73.7348 89.3332 73.4726 89.0254 73.1249 88.9399Z" fill="#949FA3"/>
<path d="M77.664 88.9399C77.6013 88.9228 77.5386 88.9171 77.4816 88.9171C77.4189 88.9171 77.3562 88.9228 77.2992 88.9399C76.9458 89.014 76.6836 89.3332 76.6836 89.7151C76.6836 90.154 77.037 90.5131 77.4816 90.5131C77.9205 90.5131 78.2796 90.154 78.2796 89.7151C78.2739 89.3332 78.0117 89.0254 77.664 88.9399Z" fill="#949FA3"/>
<path d="M82.1952 88.9399C82.1325 88.9228 82.0698 88.9171 82.0128 88.9171C81.9501 88.9171 81.8874 88.9228 81.8304 88.9399C81.477 89.0254 81.2148 89.3332 81.2148 89.7151C81.2148 90.154 81.5739 90.5131 82.0128 90.5131C82.4517 90.5131 82.8108 90.154 82.8108 89.7151C82.8051 89.3332 82.5486 89.0254 82.1952 88.9399Z" fill="#949FA3"/>
<path d="M62.4428 51.7359C62.5283 51.981 62.6708 52.2091 62.8646 52.4029C63.5714 53.1154 64.7285 53.1154 65.441 52.4029C65.8457 51.9982 66.0224 51.4624 65.9597 50.9323C65.9312 50.5276 65.7545 50.1343 65.441 49.8208C64.7285 49.1083 63.5657 49.1083 62.8646 49.8208C62.3459 50.3395 62.2034 51.0747 62.4428 51.7131V51.7359Z" fill="#949FA3"/>
<path d="M89.0171 85.594C89.3729 85.594 89.6612 85.3056 89.6612 84.9499C89.6612 84.5942 89.3729 84.3058 89.0171 84.3058C88.6614 84.3058 88.373 84.5942 88.373 84.9499C88.373 85.3056 88.6614 85.594 89.0171 85.594Z" fill="#949FA3"/>
<path d="M92.6754 85.594C93.0311 85.594 93.3195 85.3056 93.3195 84.9499C93.3195 84.5942 93.0311 84.3058 92.6754 84.3058C92.3196 84.3058 92.0312 84.5942 92.0312 84.9499C92.0312 85.3056 92.3196 85.594 92.6754 85.594Z" fill="#949FA3"/>
<path d="M96.3414 85.594C96.6971 85.594 96.9855 85.3056 96.9855 84.9499C96.9855 84.5942 96.6971 84.3058 96.3414 84.3058C95.9856 84.3058 95.6973 84.5942 95.6973 84.9499C95.6973 85.3056 95.9856 85.594 96.3414 85.594Z" fill="#949FA3"/>
<path d="M82.5346 54.8596C81.9304 55.4581 80.9614 55.4581 80.3629 54.8596C79.7644 54.2554 79.7644 53.2864 80.3629 52.6879C80.9614 52.0894 81.9304 52.0894 82.5346 52.6879C83.1331 53.2864 83.1331 54.2554 82.5346 54.8596Z" fill="#949FA3"/>
<path d="M18.7769 84.3058C18.4235 84.3058 18.1328 84.5965 18.1328 84.9499C18.1328 85.3033 18.4235 85.594 18.7769 85.594C19.1303 85.594 19.421 85.3033 19.421 84.9499C19.421 84.5965 19.1303 84.3058 18.7769 84.3058Z" fill="#949FA3"/>
<path d="M22.4351 85.594C22.7908 85.594 23.0792 85.3056 23.0792 84.9499C23.0792 84.5942 22.7908 84.3058 22.4351 84.3058C22.0794 84.3058 21.791 84.5942 21.791 84.9499C21.791 85.3056 22.0794 85.594 22.4351 85.594Z" fill="#949FA3"/>
<path d="M33.4073 54.8596C32.8088 55.4581 31.8341 55.4581 31.2356 54.8596C30.9335 54.5575 30.791 54.1585 30.791 53.7709C30.791 53.6968 30.7967 53.617 30.8138 53.5429C30.8081 53.5372 30.8138 53.5201 30.8195 53.5144C30.8138 53.5087 30.8138 53.5087 30.8195 53.4973C30.8138 53.4916 30.8138 53.4916 30.8195 53.4802V53.4745C30.8252 53.4061 30.848 53.3434 30.8708 53.2807C30.8879 53.2294 30.9107 53.1781 30.9335 53.1268V53.1211C30.9563 53.0755 30.9791 53.0299 31.0019 52.9843C31.0076 52.9786 31.0076 52.9786 31.019 52.9672C31.0247 52.9387 31.0475 52.9045 31.0703 52.8817C31.1159 52.8133 31.1729 52.7506 31.2299 52.6879C31.2926 52.6252 31.3667 52.5625 31.4351 52.5112C31.5263 52.4485 31.6346 52.3972 31.7372 52.3516C31.9196 52.2832 32.1134 52.2433 32.3072 52.2433C32.3129 52.2433 32.3129 52.2433 32.3243 52.2433C32.3984 52.2433 32.4839 52.249 32.5637 52.2661C32.6036 52.2661 32.6378 52.2718 32.6777 52.2889C32.729 52.2946 32.786 52.3117 32.8316 52.3288C32.8373 52.3288 32.8544 52.3345 32.8601 52.3459C32.8772 52.3516 32.8886 52.3516 32.9057 52.363C32.9912 52.3915 33.0767 52.4371 33.1565 52.4941H33.1622C33.2477 52.5568 33.3218 52.6195 33.4016 52.6936C34.0115 53.2864 34.0115 54.2554 33.4073 54.8596Z" fill="#949FA3"/>
<path d="M89.495 35.6221C87.6824 34.4365 86.7533 32.9944 86.7305 32.9488L86.6279 32.7949L86.4683 32.6809C86.1776 32.4757 80.2439 28.366 73.5806 28.4629C73.3982 28.4629 73.1987 28.4116 73.0448 28.3033C71.1239 26.9182 70.1435 25.3906 70.1093 25.3393L69.9839 25.1398L69.7901 25.0087C69.3341 24.6838 58.5554 17.2054 48.3581 20.7223C42.128 22.8712 38.4059 25.7839 36.143 28.2178C35.9891 28.3888 35.7725 28.4857 35.5445 28.4971C34.3361 28.5826 33.0992 28.8049 31.8794 29.2267C23.6144 32.0824 20.8043 36.6025 19.7441 38.2954C19.4534 38.7628 19.385 39.2188 19.5389 39.6406C19.7897 40.3189 20.468 40.5298 21.1235 40.7407C22.3889 41.1397 23.6942 41.5558 23.3921 44.4172C23.1698 46.4521 23.3465 48.2248 23.8424 49.4617L24.4637 50.5447L24.7544 50.8354C24.7943 50.8753 24.8399 50.9038 24.8798 50.938C25.1933 51.166 25.541 51.2857 25.8887 51.2857C26.0882 51.2857 26.2934 51.2401 26.4929 51.1546C26.8691 50.9836 27.5303 50.4934 27.6785 49.0969C27.8723 47.233 29.2289 45.8536 30.5513 44.5198C30.9218 44.1436 31.2809 43.7731 31.5944 43.414C32.4266 42.4849 34.9175 42.3595 36.9182 42.3709C37.3799 42.3709 37.7618 42.7186 37.8074 43.1689C37.8815 43.9384 38.024 44.6338 38.2121 45.2494L39.1811 47.1247C39.335 47.3071 39.5117 47.4781 39.6941 47.6092C40.0874 47.8942 40.5092 48.0367 40.931 48.0367C41.1932 48.0367 41.444 47.9854 41.6834 47.8771C42.1508 47.6605 42.9659 47.0563 43.1483 45.3292C43.3535 43.3171 44.6702 41.7553 46.0838 40.2904C46.289 40.0738 46.4999 39.8686 46.7051 39.6634C46.9559 39.4012 47.2124 39.1504 47.4518 38.9053C47.6456 38.7001 47.828 38.5006 48.0047 38.3011C48.5747 37.6627 49.7774 37.3321 51.1511 37.1668C51.8864 37.0813 52.673 37.0357 53.4425 37.0186C54.3773 36.9958 55.295 37.0129 56.0531 37.0186C56.5433 37.0357 57.005 37.0357 57.4211 37.0357C57.575 37.0357 57.7289 37.03 57.8828 37.0186H57.8885C58.8461 36.9559 59.855 36.7165 60.8126 36.3973C62.2205 35.9299 63.5315 35.3086 64.4891 34.8469C64.7684 34.7158 65.0819 34.5619 65.3099 34.465C65.5151 34.3738 65.7545 34.3567 65.9768 34.4422C66.524 34.6474 67.4531 35.3086 68.0117 37.1668C68.4791 38.7172 69.4937 39.9598 70.9016 40.6951C70.9871 40.7464 71.0612 40.7863 71.1467 40.8262C71.3063 40.9003 71.4773 40.9744 71.654 41.0314C71.654 41.0314 72.4007 41.5843 73.706 42.3823C74.3045 42.3766 74.8802 42.388 75.3704 42.3994C75.7637 42.3994 76.1285 42.4051 76.4705 42.4051C78.4769 42.4051 80.7968 41.2993 82.1876 40.6381C82.3871 40.5469 82.6037 40.4386 82.7804 40.3531C83.0084 40.2505 83.2706 40.2391 83.5043 40.3474C83.9489 40.564 84.6272 41.1283 85.0433 42.5134C85.4423 43.8358 86.3429 44.8846 87.5684 45.4603C87.7052 45.523 87.8363 45.5743 87.9731 45.6313L89.9111 45.9163C90.2873 45.8878 90.6464 45.808 90.9713 45.6769C91.6268 45.3976 91.9916 44.6965 92.0942 43.528C92.2823 41.4646 91.547 36.9559 89.495 35.6221ZM37.8473 39.5323C37.8074 39.8629 37.7846 40.1935 37.7732 40.507C35.0087 40.4671 31.7141 40.4899 30.2093 42.1828C29.9072 42.5134 29.5709 42.8611 29.2289 43.2145C27.8324 44.6281 26.0882 46.3951 25.8317 48.9088C25.8146 49.0342 25.8032 49.1311 25.7804 49.2109C25.427 48.6637 24.9653 47.2159 25.2503 44.6281C25.7177 40.2505 22.9988 39.3898 21.6935 38.9737C21.6536 38.9566 21.608 38.9452 21.5624 38.9338C22.6853 37.1725 25.3871 33.4504 32.5007 30.9937C33.0935 30.7885 33.692 30.6403 34.2905 30.5377C33.8915 31.1077 33.5837 31.5922 33.3557 31.9684C32.9966 32.5441 32.9111 33.1027 33.1049 33.6214C33.4127 34.465 34.2506 34.7272 35.0543 34.9894C36.6104 35.4682 38.2349 35.9812 37.8473 39.5323ZM74.4584 38.2612C74.4185 38.7229 74.0195 39.0934 73.5521 39.0649C73.1132 39.0421 72.6173 38.9338 72.1385 38.7115C71.483 38.4037 70.628 37.7653 70.2347 36.4771C69.4595 33.9178 68.006 32.6695 66.7178 32.2192C66.1193 32.0197 65.5493 31.9912 65.1104 32.0824C64.757 32.1508 64.3409 32.3503 63.5144 32.7436C62.7392 33.1141 61.6961 33.61 60.596 34.009C59.5187 34.408 58.4072 34.7101 57.4325 34.7101C57.0278 34.7101 56.5775 34.7101 56.1044 34.693C54.5312 34.6702 52.787 34.6417 51.1682 34.8241C50.3759 34.8982 49.6235 35.0293 48.9281 35.2402C47.8622 35.548 46.9388 36.0211 46.2947 36.7507C45.9242 37.1725 45.5138 37.5886 45.0806 38.0275C44.8127 38.2954 44.5334 38.5804 44.2484 38.8711C43.4162 39.7489 42.5726 40.7293 41.9228 41.875C41.3927 42.8269 40.9937 43.8871 40.8683 45.0784C40.8512 45.2323 40.8284 45.3463 40.8056 45.4546C40.4978 44.9758 40.1273 43.9669 40.0532 42.3196C40.0304 41.761 40.0304 41.134 40.0817 40.4329C40.0988 40.2163 40.1216 40.0054 40.1444 39.7717C40.6289 35.2402 38.3603 33.7525 36.6674 33.0913C36.485 32.4871 36.4451 32.3389 36.2627 31.729C36.5648 31.3129 36.9239 30.8455 37.3457 30.3553C37.8131 29.8081 38.366 29.2324 39.0215 28.6339C41.1419 26.6845 44.3225 24.5527 49.1276 22.894C57.3071 20.0668 66.3929 25.5217 68.1713 26.6731C68.2625 26.7358 68.3423 26.8099 68.3993 26.9011C68.7071 27.3229 69.2999 28.0753 70.1891 28.9132C70.7192 29.4148 71.3633 29.9449 72.11 30.4408C72.1727 30.4807 72.2354 30.5263 72.2924 30.5662C73.0277 31.045 73.7744 32.6695 74.1962 34.7158C74.504 36.2605 74.5325 37.486 74.4584 38.2612ZM90.2531 43.1917C90.2246 43.699 89.7686 44.0809 89.2613 44.0239C88.9763 43.984 88.6628 43.8985 88.3607 43.7617C87.8306 43.5109 87.1409 42.9922 86.8217 41.9491C85.8983 38.9167 83.795 38.1643 82.6835 38.398C82.3985 38.4607 82.0622 38.6146 81.3953 38.9338C80.1527 39.5266 78.0608 40.5241 76.4819 40.5241C76.3508 40.5241 76.214 40.5241 76.0658 40.5184C76.4477 40.051 76.67 39.3499 76.7555 38.4037C76.8923 36.8305 76.5959 34.0774 75.7409 31.8202C75.4901 31.1533 76.0544 30.4864 76.7612 30.6118C80.7683 31.3642 84.137 33.3763 85.1117 34.009C85.2029 34.0717 85.2884 34.1458 85.3568 34.237C85.7786 34.8184 86.8103 36.0895 88.4747 37.1725C89.0732 37.5658 89.6717 38.8768 90.0194 40.5241C90.2531 41.647 90.293 42.5647 90.2531 43.1917Z" fill="#949FA3"/>
<path d="M101.249 81.6211C99.4929 78.6457 87.483 72.6835 83.8407 70.9279C83.6355 70.831 83.5101 70.6258 83.5101 70.3978L83.5272 67.3597C83.5272 67.1887 83.6127 67.0177 83.7495 66.9037C87.0783 64.2019 87.5571 61.1296 87.8421 59.2942C87.8877 58.9978 87.9903 58.3423 88.0758 58.1314C89.2386 58.0801 90.333 57.151 91.0854 55.555C91.9347 53.7481 92.328 51.1717 91.1937 49.7866C90.7092 49.1881 90.1677 48.8575 89.5863 48.8062C89.3925 48.7891 89.2044 48.8005 89.0106 48.8461C89.0448 48.5725 89.0961 48.2533 89.1531 47.8999C89.2158 47.4781 89.2899 47.0677 89.3583 46.6801C89.4096 46.4179 89.6262 45.9106 89.9169 45.8935L89.9625 45.5857L87.7338 45.2608L87.6768 45.5515C87.483 46.5091 87.3291 47.404 87.2037 48.2191C86.9244 50.1799 87.0783 50.6017 87.2721 50.881C87.4317 51.1261 87.6882 51.2857 87.9903 51.3313C88.5033 51.4054 88.8681 51.0976 89.0847 50.9095C89.1702 50.8411 89.3355 50.7043 89.4153 50.6758C89.4609 50.6986 89.5863 50.7784 89.7516 50.9722C90.1791 51.4966 90.1164 53.2294 89.3868 54.7627C88.9023 55.8058 88.3266 56.2732 87.9732 56.2732C86.4057 56.2732 86.172 57.7951 85.9896 59.0149C85.659 61.1524 85.1688 64.3843 80.2383 66.9949C79.3548 67.4623 78.6822 68.0779 78.1863 68.5282C78.0324 68.6764 77.7075 68.9785 77.565 69.0526L77.5536 69.0583C76.596 69.5827 74.9145 69.5827 73.9512 69.0583L73.9398 69.0526C73.8201 68.9956 73.5807 68.7733 73.3698 68.5795L73.2957 68.5111C72.777 68.0437 72.1386 67.4566 71.2665 67.0006C70.4343 66.5617 69.6705 66.0601 68.9865 65.5186C68.7528 65.3305 68.7015 64.9771 68.8782 64.7377C70.7649 62.1727 71.1468 59.6362 71.4033 57.9547C71.4717 57.5272 71.6085 56.6722 71.7225 56.4499C73.1532 56.4157 74.4984 55.27 75.4275 53.2978C76.2084 51.6391 76.5675 49.6954 76.368 48.2191C76.254 47.3983 75.9861 46.7314 75.57 46.2241C74.9772 45.5116 74.3274 45.1126 73.6377 45.0442C73.3698 45.0214 73.1076 45.0442 72.8454 45.1183C72.9195 44.554 73.0221 43.8757 73.1418 43.1689C73.1931 42.8782 73.4268 42.3595 73.7175 42.3595L74.9031 42.3652L73.8828 42.0916C72.606 41.3107 71.865 40.7635 71.8536 40.7578L71.4546 40.4614L71.3577 40.9459C71.2722 41.362 71.1981 41.761 71.1297 42.1144L71.067 42.4336C70.3602 46.3039 70.5483 47.0506 70.7934 47.4268C70.7991 47.4382 70.8048 47.4496 70.8105 47.4553L70.8276 47.4838C71.0271 47.7745 71.3292 47.9626 71.6712 48.0139C71.9733 48.0595 72.2697 47.9854 72.5718 47.803L72.5775 47.7973C72.7143 47.7061 72.8511 47.6092 72.9708 47.5066L72.9993 47.4838C73.1133 47.3926 73.3413 47.2045 73.4325 47.1931C73.4724 47.1988 73.6377 47.2843 73.9056 47.5978C73.9911 47.7004 74.0652 47.8486 74.1222 48.031C74.4471 49.057 74.1678 50.881 73.4667 52.3687C72.8454 53.6911 72.1044 54.2839 71.6484 54.2839C71.4432 54.2839 71.2608 54.3067 71.1069 54.3466C70.839 54.4093 70.5882 54.529 70.3659 54.7114C69.6078 55.3384 69.4368 56.4955 69.2658 57.6184V57.6355C68.9922 59.4025 68.6559 61.6084 66.8433 63.8485C66.5754 64.1848 66.3075 64.4755 66.0282 64.7548C64.9965 65.7865 63.6741 66.7327 62.1066 67.5592C61.0236 68.1349 60.2256 68.8645 59.5872 69.4459L59.5245 69.5029C59.2452 69.7594 58.9488 70.0273 58.7949 70.1071L58.7892 70.1128C57.5808 70.774 55.4661 70.774 54.2577 70.1128L54.252 70.1071C54.0753 70.0159 53.7447 69.7138 53.454 69.4459C52.8156 68.8588 52.0176 68.1292 50.9289 67.5535C49.6749 66.898 48.5748 66.1513 47.6514 65.3419C47.3607 65.0968 47.07 64.8175 46.785 64.5097C44.4537 62.0416 44.0604 59.488 43.7811 57.6184C43.5531 56.1364 43.2738 54.2896 41.3871 54.2896C40.9311 54.2896 40.1958 53.6968 39.5745 52.3801C39.3579 51.9127 39.1698 51.394 39.0273 50.8297C38.6682 49.4161 38.7138 48.1165 39.1413 47.6035L39.147 47.5978C39.2097 47.518 39.2895 47.4439 39.3864 47.3584L39.5802 47.1988L38.4972 45.1012L38.2179 45.2437C38.2806 45.4432 37.9215 45.7624 37.7505 45.9277C37.665 46.0075 37.5738 46.0987 37.4712 46.2241C36.5649 47.3299 36.3711 49.2223 36.9411 51.3997C37.1007 52.0381 37.3401 52.6936 37.6194 53.2921C38.5485 55.2643 39.8994 56.41 41.3244 56.4442C41.4441 56.6608 41.5809 57.55 41.6436 57.949L41.6493 57.9946C41.94 59.8129 42.3732 62.5603 44.5677 65.2564C44.6703 65.3818 44.7159 65.5471 44.6931 65.7067C44.6703 65.872 44.5848 66.0088 44.448 66.1C43.9521 66.4363 43.4676 66.727 42.966 66.9892C42.1167 67.4395 41.4783 68.0095 40.971 68.4655L40.9083 68.5225C40.7658 68.6593 40.4295 68.9728 40.2813 69.0526C39.318 69.577 37.6308 69.577 36.6675 69.0526C36.525 68.9785 36.1887 68.6593 36.0462 68.5282L35.9835 68.4712C35.4705 68.0152 34.8378 67.4395 33.9885 66.9949C29.0694 64.39 28.5735 61.1581 28.2429 59.0149L28.2372 58.9864C28.0434 57.778 27.8097 56.2675 26.2479 56.2675C25.9002 56.2675 25.3302 55.8001 24.8343 54.757C24.7317 54.5518 24.6405 54.3124 24.5493 54.0559C24.0762 52.6423 24.1389 51.3769 24.4752 50.9722C24.5379 50.8981 24.6006 50.8354 24.6633 50.7841L24.8742 50.6188L23.9451 49L23.6658 49.2052C23.4264 49.3762 23.2212 49.57 23.0388 49.7923C22.3491 50.6302 22.161 52.0609 22.5315 53.7253C22.674 54.3637 22.8906 54.9964 23.1528 55.5664C23.9109 57.1624 25.0053 58.0915 26.1624 58.1428C26.2536 58.348 26.3505 59.0092 26.3961 59.3056C26.6925 61.2379 27.1428 64.1449 30.3576 66.8182V70.5802C30.3576 70.8082 30.2322 71.0134 30.027 71.1103C28.4937 71.8513 24.5379 73.8064 20.85 75.8983C16.3698 78.4405 13.725 80.3671 12.9897 81.6268C11.0346 84.9385 12.2544 88.2958 12.3969 88.672L12.642 89.2534H23.1186C23.2782 89.2534 23.4321 89.3161 23.5404 89.4358C23.6544 89.5555 23.7114 89.7208 23.7 89.8918C23.5233 92.3485 24.27 94.1896 24.3156 94.2979L24.5835 94.9705H88.4634L88.7427 94.3036C88.7484 94.2865 89.5407 92.4112 89.3583 89.8918C89.3469 89.7208 89.4039 89.5555 89.5179 89.4358C89.6262 89.3161 89.7744 89.2534 89.9397 89.2534H101.602L101.841 88.6777L101.847 88.6663C101.984 88.2958 103.204 84.9328 101.249 81.6211ZM25.2219 85.3375C25.1421 85.4401 25.0794 85.537 25.0224 85.6396C24.7602 86.0842 24.5379 86.5402 24.3441 87.0361C24.2529 87.2527 24.042 87.3895 23.8083 87.3895H14.4375C14.1525 87.3895 13.9074 87.19 13.8561 86.9221C13.6737 85.8163 13.6509 84.169 14.5914 82.573C15.6687 80.7376 23.5347 76.3942 29.9415 73.2307C30.027 73.1908 30.1125 73.168 30.2037 73.168C30.2721 73.168 30.3405 73.1794 30.4089 73.2079C30.5628 73.2649 30.6768 73.3846 30.7395 73.5385C31.1784 74.6386 32.1417 76.7191 33.6978 78.2866C33.8403 78.4291 33.903 78.6229 33.8802 78.811C33.8574 78.9877 33.7548 79.1359 33.5952 79.2271C30.3063 81.1366 27.9009 82.7668 26.436 84.0664C26.3277 84.0208 26.2194 83.998 26.0997 83.998C25.5696 83.998 25.1421 84.4255 25.1421 84.9556C25.1364 85.0867 25.1706 85.2178 25.2219 85.3375ZM63.9135 73.8634C63.8964 73.909 63.8736 73.9717 63.8508 74.0401C63.8166 74.137 63.7767 74.251 63.7311 74.3764C63.3093 75.4765 62.3973 77.5741 60.9723 79.267C60.7215 79.5691 60.4422 79.8598 60.1458 80.1391C58.9488 81.2563 57.6549 81.8206 56.304 81.8206C55.221 81.8206 54.1779 81.4558 53.1975 80.7433C52.8954 80.5324 52.599 80.2759 52.2855 79.9624C50.1195 77.8363 48.951 74.6158 48.7002 73.8691V69.7879C48.7002 69.5713 48.8085 69.3832 48.9909 69.2749C49.1733 69.1666 49.3842 69.1666 49.5666 69.2692L49.5723 69.2749C49.6293 69.3034 49.6806 69.3376 49.7376 69.3661C49.8003 69.4003 49.8573 69.4345 49.92 69.4687C50.7579 69.9076 51.4419 70.5346 51.9891 71.0362L52.0062 71.0533C52.4451 71.4523 52.8213 71.7943 53.2146 72.0109C54.1095 72.5011 55.2837 72.769 56.5149 72.769C57.7518 72.769 58.926 72.5011 59.8209 72.0109C60.237 71.7886 60.6303 71.4238 61.0407 71.0362L61.0977 70.9849C61.6335 70.4947 62.3061 69.8905 63.1155 69.4687L63.1212 69.463C63.3891 69.3148 63.6513 69.1723 63.9021 69.0241V73.8634H63.9135ZM61.8159 81.547C62.1294 81.2392 62.4201 80.9257 62.6709 80.6122C64.6545 78.241 65.6919 75.3568 65.9598 74.5588C67.134 75.1345 68.3139 75.7216 69.4767 76.3144C70.212 76.6849 71.0442 77.1124 72.1671 77.6938L72.1728 77.6995L72.2127 77.7223C72.9024 78.0814 73.6662 78.4918 74.6238 79.0105C75.3477 79.3981 76.0659 79.7914 76.7442 80.1733C80.2383 82.1284 82.9287 83.8327 84.5304 85.0924C84.8154 85.3204 85.089 85.5541 85.3455 85.7878C85.7331 86.1526 86.0124 86.4718 86.1663 86.7226C86.3601 87.0532 86.5311 87.4066 86.6907 87.8113C86.8446 88.2046 86.9643 88.615 87.0384 88.9969C87.255 90.04 87.2607 91.1629 87.0498 92.3257C86.9928 92.605 86.7534 92.7988 86.4684 92.7988H26.5785C26.2935 92.7988 26.0541 92.5993 26.0028 92.3257C25.7862 91.18 25.7862 90.0571 26.0085 88.9969V88.9912C26.0826 88.615 26.1966 88.216 26.3562 87.8113C26.4987 87.4351 26.6811 87.0703 26.8863 86.7226C27.405 85.8448 29.5083 83.9695 36.5934 80.0137C37.0722 79.7401 37.5909 79.4551 38.2692 79.0846C39.5745 78.3778 40.9881 77.6311 42.4701 76.8616C43.0515 76.5595 43.6215 76.2745 44.1744 75.9952C44.3682 75.8983 44.5563 75.8014 44.7444 75.7102C45.2289 75.4651 45.6906 75.2314 46.1238 75.0205C46.2093 74.9806 46.2948 74.9578 46.3803 74.9578C46.4544 74.9578 46.5285 74.9692 46.5969 74.9977C46.7508 75.0604 46.8705 75.1744 46.9275 75.3283C47.4747 76.7533 48.6888 79.4494 50.7009 81.4501C50.9916 81.7408 51.3165 82.0258 51.6585 82.2994C53.0778 83.4109 54.6396 83.9695 56.2983 83.9695C58.3104 83.9866 60.1629 83.1658 61.8159 81.547ZM67.6926 72.9913C67.7268 72.9742 67.761 72.9571 67.7952 72.94C67.8066 72.9799 67.8237 73.0198 67.8408 73.0654C67.7895 73.0426 67.7382 73.0198 67.6926 72.9913ZM67.6299 70.5859C67.6299 70.8139 67.5045 71.0077 67.2936 71.1103C67.2366 71.1388 67.1739 71.1673 67.1112 71.2015C67.0428 71.2357 66.9744 71.2699 66.906 71.3041C66.7179 71.3953 66.5013 71.3839 66.3246 71.2699C66.1536 71.1616 66.0567 70.9792 66.0567 70.774L66.0738 67.8499C66.0738 67.6789 66.1593 67.5079 66.3018 67.3939C66.6495 67.1146 66.9801 66.8239 67.2936 66.5275C67.4019 66.6301 67.5159 66.727 67.6299 66.8182V70.5859ZM81.6633 72.0451C81.6633 72.1135 81.6519 72.1705 81.6348 72.2161L81.6291 72.2332C81.2871 73.2136 79.9989 76.5253 77.679 77.9104C77.5137 78.0016 77.3028 77.9959 77.1204 77.899C75.0969 76.7761 72.8625 75.5962 70.4799 74.3935C69.984 73.4644 69.6762 72.6493 69.5394 72.2332L69.5337 72.2161C69.5166 72.1705 69.5052 72.1078 69.5052 72.0394V69.1495C69.5052 68.9386 69.6078 68.7562 69.7845 68.6479C69.9669 68.5396 70.1835 68.5339 70.3716 68.6308C70.383 68.6365 70.3944 68.6422 70.4058 68.6479L70.4457 68.6707C71.0727 69.0184 71.5857 69.4687 72.0588 69.9076C72.3837 70.204 72.72 70.5118 73.062 70.6942C73.7916 71.0932 74.7492 71.3155 75.7524 71.3155C76.7613 71.3155 77.7189 71.0932 78.4485 70.6942C78.7734 70.5175 79.0755 70.2439 79.4232 69.9304L79.4517 69.9019C79.9362 69.4516 80.4606 68.9842 81.1104 68.6365C81.2928 68.5396 81.4752 68.4427 81.6576 68.3401V72.0451H81.6633ZM44.3796 72.0451C44.3796 72.1135 44.3682 72.1762 44.3511 72.2332C44.1858 72.712 43.9863 73.1851 43.7754 73.6468C43.7184 73.7665 43.6272 73.8577 43.5189 73.9147C40.8057 75.277 38.4744 76.4968 36.3939 77.6482C36.2001 77.7565 35.9607 77.7508 35.8011 77.6311C33.6522 76.0636 32.4666 72.8602 32.25 72.2389C32.2329 72.1819 32.2215 72.1135 32.2215 72.0451V69.1438C32.2215 68.9386 32.3241 68.7562 32.5008 68.6479C32.5977 68.5909 32.706 68.5567 32.8143 68.5567C32.8998 68.5567 32.991 68.5738 33.0765 68.6137L33.1221 68.6422C33.8061 69.007 34.3704 69.5314 34.7865 69.9133L34.8093 69.9361C35.157 70.2553 35.4591 70.5289 35.784 70.6999C36.5136 71.0989 37.4769 71.3212 38.4858 71.3212C39.489 71.3212 40.4466 71.0989 41.1762 70.6999C41.5125 70.5175 41.826 70.2325 42.1737 69.9076C42.5898 69.5257 43.1541 69.007 43.8381 68.6422C44.0148 68.551 44.1972 68.4541 44.3853 68.3458V72.0451H44.3796ZM79.9647 79.5235C79.7994 79.4266 79.6968 79.267 79.674 79.0732C79.6569 78.8908 79.7196 78.7198 79.845 78.6058C81.9825 76.6564 83.1111 73.6582 83.4075 72.7918C88.6971 75.3739 98.4156 80.4982 99.6354 82.573C100.576 84.1633 100.547 85.8106 100.365 86.9164C100.319 87.1843 100.074 87.3895 99.7893 87.3895H89.2443C88.9992 87.3895 88.7883 87.247 88.7028 87.0304C88.5318 86.5744 88.2981 86.1013 88.0188 85.6282C87.198 84.2374 84.5646 82.2424 79.9647 79.5235ZM46.5399 70.9222C46.3461 70.8196 46.2321 70.6201 46.2321 70.4035L46.2549 67.0975C46.2777 67.0804 46.3005 67.0633 46.3233 67.0462C46.3917 67.1089 46.4658 67.1716 46.5399 67.2343V70.9222Z" fill="#949FA3"/>
</svg>
