<svg width="124" height="125" viewBox="0 0 124 125" fill="none" xmlns="http://www.w3.org/2000/svg">
<g clip-path="url(#clip0_58_250)">
<path d="M69.7996 66.3494H66.9476V46.6706H62V43.8186H67.2452C68.6526 43.8186 69.7996 44.9656 69.7996 46.373V66.3494Z" fill="#949FA3"/>
<path d="M39.5308 44.9656C39.0906 44.9656 38.6504 44.854 38.2536 44.6308C37.4228 44.1658 36.9082 43.2916 36.9082 42.343V36.422C36.9082 35.5168 37.3856 34.6612 38.1606 34.19L60.7968 20.2896C61.5408 19.837 62.4584 19.837 63.2024 20.2896L85.8386 34.19C86.6074 34.6612 87.091 35.523 87.091 36.422V42.343C87.091 43.2916 86.5764 44.172 85.7456 44.6308C84.9148 45.0958 83.898 45.071 83.092 44.575L61.9996 31.586L40.9072 44.575C40.4856 44.8354 40.0082 44.9656 39.5308 44.9656ZM61.9996 28.6348C62.415 28.6348 62.8304 28.7464 63.2024 28.9758L84.239 41.9276V36.546L61.9996 22.8936L39.7602 36.546V41.9276L60.7968 28.9758C61.1688 28.7526 61.5842 28.6348 61.9996 28.6348Z" fill="#949FA3"/>
<path d="M80.396 67.7754H43.6052C42.1978 67.7754 41.0508 66.6284 41.0508 65.221V41.8904H43.9028V64.9234H80.0922V41.8904H82.9442V65.221C82.9504 66.6284 81.8034 67.7754 80.396 67.7754Z" fill="#949FA3"/>
<path d="M57.0532 66.3494H54.2012V46.373C54.2012 44.9656 55.3482 43.8186 56.7556 43.8186H62.0007V46.6706H57.0532V66.3494Z" fill="#949FA3"/>
<path d="M84.5118 104.529C83.6748 104.529 82.9928 103.847 82.9928 103.01V102.247C82.9928 100.952 83.4578 99.693 84.2948 98.7072L98.8958 81.6076C99.2678 81.1736 99.4724 80.6156 99.4724 80.0452V51.5438C99.4724 50.217 98.3936 49.132 97.0606 49.132C95.7338 49.132 94.6488 50.2108 94.6488 51.5438V72.6176C94.6488 74.0746 94.0846 75.4386 93.0554 76.4678L93.012 76.505L83.5942 85.2346C83.5818 85.247 83.5694 85.2594 83.557 85.2656C83.5384 85.2842 83.5198 85.2966 83.5012 85.3152C83.4826 85.3338 83.464 85.3462 83.4392 85.3586C83.4144 85.3772 83.3958 85.3896 83.371 85.402C83.3524 85.4144 83.3276 85.4268 83.309 85.4392C83.2904 85.4516 83.2656 85.464 83.2408 85.4764C83.216 85.4888 83.1974 85.495 83.1726 85.5074C83.1478 85.5198 83.123 85.526 83.1044 85.5384C83.0858 85.5446 83.061 85.557 83.0362 85.5632C83.0114 85.5694 82.9866 85.5818 82.9618 85.588C82.937 85.5942 82.9122 85.6004 82.8874 85.6066C82.8626 85.6128 82.8378 85.619 82.813 85.619C82.7882 85.6252 82.7634 85.6252 82.7386 85.6314C82.7138 85.6314 82.689 85.6376 82.6642 85.6376C82.6394 85.6376 82.6146 85.6376 82.5898 85.6438C82.5712 85.6438 82.5526 85.6438 82.5402 85.6438H82.5154C82.4906 85.6438 82.4658 85.6438 82.441 85.6376C82.4162 85.6376 82.3914 85.6314 82.3666 85.6314C82.3418 85.6314 82.3232 85.6252 82.2984 85.619C82.2736 85.6128 82.2488 85.6128 82.224 85.6066C82.1992 85.6004 82.1806 85.5942 82.1558 85.588C82.131 85.5818 82.1062 85.5756 82.0814 85.5694C82.0566 85.5632 82.038 85.557 82.0132 85.5446C81.9884 85.5384 81.9698 85.526 81.945 85.5198C81.9202 85.5074 81.8954 85.5012 81.8768 85.4888C81.8582 85.4764 81.8334 85.4702 81.8086 85.4578C81.79 85.4454 81.7652 85.433 81.7466 85.4206C81.7218 85.4082 81.7032 85.3958 81.6846 85.3834C81.666 85.371 81.6412 85.3524 81.6226 85.3338C81.604 85.3214 81.5854 85.3028 81.5668 85.2904C81.5482 85.2718 81.5296 85.2532 81.511 85.2408C81.4986 85.2284 81.4862 85.216 81.4738 85.2036C81.4676 85.1974 81.4614 85.1912 81.4552 85.185C81.449 85.1788 81.4428 85.1726 81.4366 85.1664C81.4242 85.154 81.4118 85.1416 81.3994 85.123C81.3808 85.1044 81.3684 85.0858 81.3498 85.0672C81.3312 85.0486 81.3188 85.0238 81.3064 85.0052C81.294 84.9866 81.2754 84.9618 81.263 84.9432C81.2506 84.9246 81.2382 84.8998 81.2258 84.8812C81.2134 84.8564 81.201 84.8378 81.1886 84.813C81.1762 84.7882 81.1638 84.7696 81.1576 84.7448C81.1514 84.7262 81.139 84.7014 81.1328 84.6766C81.1266 84.6518 81.1142 84.627 81.108 84.6022C81.1018 84.5836 81.0956 84.5588 81.0894 84.534C81.0832 84.5092 81.077 84.4844 81.0708 84.4596C81.0646 84.4348 81.0584 84.4162 81.0584 84.3914C81.0522 84.3666 81.0522 84.3418 81.046 84.317C81.046 84.2922 81.0398 84.2674 81.0398 84.2488C81.0398 84.224 81.0398 84.1992 81.0336 84.1744C81.0336 84.1496 81.0336 84.1248 81.0336 84.1C81.0336 84.0752 81.0336 84.0504 81.0398 84.0256C81.0398 84.0008 81.046 83.976 81.046 83.9512C81.046 83.9264 81.0522 83.9078 81.0584 83.883C81.0646 83.8582 81.0646 83.8334 81.0708 83.8086C81.077 83.7838 81.0832 83.7652 81.0894 83.7404C81.0956 83.7156 81.1018 83.6908 81.108 83.666C81.1142 83.6474 81.1204 83.6226 81.1328 83.5978C81.139 83.573 81.1514 83.5482 81.1576 83.5296C81.17 83.5048 81.1762 83.4862 81.1886 83.4614C81.201 83.4366 81.2134 83.418 81.2258 83.3932C81.2382 83.3746 81.2506 83.3498 81.263 83.3312C81.2754 83.3064 81.2878 83.2878 81.3002 83.2692C81.3126 83.2444 81.3312 83.2258 81.3498 83.2072C81.3622 83.1886 81.3808 83.17 81.3932 83.1514C81.4118 83.1328 81.4242 83.1142 81.4428 83.0956C81.4552 83.0832 81.4676 83.0708 81.48 83.0584L89.0254 75.513C89.6392 74.8992 89.6392 73.9072 89.0254 73.2934C88.7402 73.0082 88.3496 72.8408 87.9528 72.8408C87.9404 72.8408 87.928 72.8408 87.9156 72.8408C87.5312 72.8532 87.1778 73.0144 86.9236 73.2996L86.8678 73.3554L70.3448 89.8784L70.2828 89.928C70.0286 90.1326 69.8798 90.4736 69.8798 90.8704V103.022C69.8798 103.859 69.1978 104.541 68.3608 104.541C67.5238 104.541 66.8418 103.859 66.8418 103.022V90.8704C66.8418 89.5932 67.375 88.409 68.305 87.6216L84.6916 71.235C85.51 70.3484 86.626 69.84 87.835 69.809C87.8722 69.809 87.9156 69.809 87.9528 69.809C89.1432 69.809 90.315 70.2988 91.1706 71.1482C91.3256 71.3032 91.4682 71.4706 91.5984 71.6442V51.5438C91.5984 48.5368 94.0412 46.094 97.0482 46.094C100.055 46.094 102.498 48.5368 102.498 51.5438V80.0452C102.498 81.341 102.033 82.5996 101.196 83.5854L86.6074 100.685C86.2354 101.119 86.0308 101.677 86.0308 102.247V103.01C86.0308 103.847 85.3488 104.529 84.5118 104.529Z" fill="#949FA3"/>
<path d="M97.0604 46.59C94.3324 46.59 92.1066 48.8096 92.1066 51.5438V72.6176C92.1066 72.9462 92.0508 73.2624 91.9516 73.5662C91.7904 72.785 91.406 72.0658 90.8294 71.4892C90.042 70.7018 88.957 70.2616 87.8534 70.2926C86.7746 70.3174 85.7826 70.77 85.0572 71.5698L68.6458 87.9812C67.815 88.6756 67.3438 89.7172 67.3438 90.8642V103.016C67.3438 103.58 67.8026 104.039 68.3668 104.039C68.931 104.039 69.3898 103.58 69.3898 103.016V90.8642C69.3898 90.3248 69.6006 89.8412 69.9788 89.5374L70.0222 89.5002L86.5266 72.9958L86.5638 72.9586C86.911 72.5742 87.3946 72.351 87.9154 72.3386C88.461 72.3262 88.9942 72.5432 89.391 72.9338C90.197 73.7398 90.197 75.048 89.391 75.854L81.8394 83.4056C81.8332 83.4118 81.827 83.4242 81.8208 83.4304C81.8084 83.4428 81.796 83.4552 81.7836 83.4676C81.7712 83.48 81.765 83.4924 81.7526 83.5048C81.7402 83.5172 81.734 83.5358 81.7216 83.5482C81.7092 83.5606 81.703 83.573 81.6968 83.5916C81.6906 83.604 81.6782 83.6226 81.672 83.635C81.6658 83.6474 81.6596 83.666 81.6472 83.6784C81.641 83.6908 81.6348 83.7094 81.6286 83.7218C81.6224 83.7404 81.6162 83.7528 81.61 83.7714C81.6038 83.7838 81.5976 83.8024 81.5914 83.8148C81.5852 83.8334 81.579 83.8458 81.579 83.8644C81.5728 83.8768 81.5728 83.8954 81.5666 83.9078C81.5604 83.9264 81.5604 83.9388 81.5604 83.9574C81.5604 83.976 81.5542 83.9884 81.5542 84.007C81.5542 84.0256 81.548 84.038 81.548 84.0566C81.548 84.0752 81.548 84.0876 81.548 84.1062C81.548 84.1248 81.548 84.1372 81.548 84.1558C81.548 84.1744 81.548 84.1868 81.548 84.2054C81.548 84.224 81.548 84.2364 81.5542 84.255C81.5542 84.2736 81.5604 84.286 81.5604 84.3046C81.5604 84.3232 81.5666 84.3356 81.5728 84.348C81.579 84.3666 81.579 84.379 81.5852 84.3976C81.5914 84.41 81.5914 84.4286 81.5976 84.441C81.6038 84.4596 81.61 84.472 81.6162 84.4906C81.6224 84.503 81.6286 84.5216 81.6348 84.534C81.641 84.5464 81.6472 84.565 81.6534 84.5774C81.6596 84.5898 81.672 84.6084 81.6782 84.6208C81.6844 84.6332 81.6968 84.6518 81.703 84.6642C81.7092 84.6766 81.7216 84.6952 81.734 84.7076C81.7464 84.72 81.7526 84.7324 81.765 84.751C81.7774 84.7634 81.7898 84.7758 81.796 84.7882C81.8022 84.7944 81.8084 84.8068 81.8146 84.813C81.8208 84.8192 81.827 84.8192 81.827 84.8254C81.8332 84.8316 81.8332 84.8378 81.8394 84.8378C81.8456 84.844 81.858 84.8502 81.8642 84.8564C81.8766 84.8688 81.889 84.8812 81.9076 84.8936C81.92 84.906 81.9324 84.9122 81.9448 84.9246C81.9572 84.937 81.9758 84.9494 81.9882 84.9556C82.0006 84.9618 82.013 84.9742 82.0316 84.9804C82.044 84.9866 82.0626 84.999 82.075 85.0052C82.0874 85.0114 82.106 85.0176 82.1184 85.03C82.1308 85.0362 82.1494 85.0424 82.1618 85.0486C82.1804 85.0548 82.1928 85.061 82.2114 85.0672C82.2238 85.0734 82.2424 85.0796 82.2548 85.0858C82.2734 85.092 82.2858 85.0982 82.3044 85.0982C82.3168 85.1044 82.3354 85.1044 82.3478 85.1106C82.3664 85.1168 82.3788 85.1168 82.3974 85.1168C82.4098 85.1168 82.4284 85.123 82.4408 85.123C82.4594 85.123 82.4718 85.1292 82.4904 85.1292C82.509 85.1292 82.5214 85.1292 82.54 85.1292C82.5586 85.1292 82.571 85.1292 82.5896 85.1292C82.6082 85.1292 82.6206 85.1292 82.6392 85.1292C82.6578 85.1292 82.6702 85.123 82.6888 85.123C82.7074 85.123 82.7198 85.1168 82.7384 85.1168C82.757 85.1168 82.7694 85.1106 82.788 85.1044C82.8066 85.0982 82.819 85.0982 82.8376 85.092C82.8562 85.0858 82.8686 85.0796 82.8872 85.0796C82.9058 85.0734 82.9182 85.0672 82.9306 85.061C82.9492 85.0548 82.9616 85.0486 82.9802 85.0424C82.9926 85.0362 83.0112 85.03 83.0236 85.0238C83.0422 85.0176 83.0546 85.0052 83.067 84.999C83.0794 84.9928 83.0918 84.9804 83.1104 84.9742C83.1228 84.9618 83.1414 84.9556 83.1538 84.9432C83.1662 84.9308 83.1786 84.9246 83.191 84.9122C83.2034 84.8998 83.2158 84.8874 83.2344 84.875C83.2406 84.8688 83.253 84.8626 83.2592 84.8564L92.677 76.1268L92.7018 76.102C93.638 75.1658 94.1526 73.9258 94.1526 72.599V51.5438C94.1526 49.938 95.4546 48.636 97.0604 48.636C98.6662 48.636 99.9682 49.938 99.9682 51.5438V80.0452C99.9682 80.7396 99.7202 81.4092 99.2738 81.93L84.6728 99.0296C83.9102 99.9224 83.4886 101.069 83.4886 102.247V103.01C83.4886 103.574 83.9474 104.033 84.5116 104.033C85.0758 104.033 85.5346 103.574 85.5346 103.01V102.247C85.5346 101.553 85.7826 100.883 86.229 100.363L100.83 83.263C101.593 82.3702 102.014 81.2232 102.014 80.0452V51.5438C102.014 48.8096 99.7946 46.59 97.0604 46.59Z" fill="#949FA3"/>
<path d="M56.0298 104.529C55.1928 104.529 54.5108 103.847 54.5108 103.01V90.858C54.5108 90.4674 54.362 90.1264 54.1078 89.9156L54.0458 89.866L37.5166 73.3368L37.4732 73.2872C37.219 73.002 36.8656 72.8408 36.4812 72.8284C36.4688 72.8284 36.4564 72.8284 36.444 72.8284C36.0472 72.8284 35.6566 72.9958 35.3714 73.281C34.7576 73.8948 34.7576 74.8868 35.3714 75.5006L42.9168 83.046C42.9292 83.0584 42.9416 83.0708 42.954 83.0832C42.9726 83.1018 42.985 83.1204 43.0036 83.139C43.0222 83.1576 43.0346 83.1762 43.047 83.1948C43.0656 83.2134 43.078 83.2382 43.0904 83.2568C43.1028 83.2754 43.1152 83.3002 43.1276 83.3188C43.14 83.3374 43.1524 83.3622 43.1648 83.387C43.1772 83.4118 43.1896 83.4304 43.202 83.4552C43.2144 83.4738 43.2206 83.4986 43.233 83.5234C43.2454 83.5482 43.2516 83.573 43.2578 83.5916C43.264 83.6164 43.2764 83.635 43.2826 83.6598C43.2888 83.6846 43.295 83.7094 43.3012 83.7342C43.3074 83.759 43.3136 83.7776 43.3198 83.8024C43.326 83.8272 43.3322 83.852 43.3322 83.8768C43.3384 83.9016 43.3384 83.9264 43.3446 83.945C43.3446 83.9698 43.3508 83.9946 43.3508 84.0194C43.3508 84.0442 43.3508 84.069 43.357 84.0938C43.357 84.1186 43.357 84.1434 43.357 84.1682C43.357 84.193 43.357 84.2178 43.3508 84.2426C43.3508 84.2674 43.3446 84.2922 43.3446 84.3108C43.3384 84.3356 43.3384 84.3604 43.3322 84.3852C43.326 84.4038 43.326 84.4286 43.3198 84.4534C43.3136 84.4782 43.3074 84.503 43.3012 84.5278C43.295 84.5526 43.2888 84.5712 43.2826 84.596C43.2764 84.6208 43.264 84.6456 43.2578 84.6704C43.2516 84.6952 43.2392 84.7138 43.2268 84.7386C43.2144 84.7634 43.2082 84.782 43.1958 84.8068C43.1834 84.8316 43.171 84.8502 43.1586 84.875C43.1462 84.8998 43.1338 84.9184 43.1214 84.9432C43.109 84.9618 43.0966 84.9866 43.078 85.0052C43.0656 85.0238 43.047 85.0486 43.0346 85.0672C43.0222 85.0858 43.0036 85.1044 42.985 85.123C42.9726 85.1354 42.9602 85.154 42.9478 85.1664C42.9416 85.1726 42.9354 85.1788 42.9292 85.185C42.923 85.1912 42.9168 85.1974 42.9106 85.2036C42.8982 85.216 42.8858 85.2284 42.8734 85.2408C42.8548 85.2594 42.8362 85.278 42.8176 85.2904C42.799 85.309 42.7804 85.3214 42.7618 85.3338C42.737 85.3524 42.7184 85.3648 42.6936 85.3834C42.675 85.3958 42.6564 85.4082 42.6316 85.4206C42.6068 85.433 42.5882 85.4454 42.5634 85.4578C42.5448 85.4702 42.52 85.4826 42.4952 85.4888C42.4704 85.5012 42.4518 85.5074 42.427 85.5198C42.4022 85.5322 42.3774 85.5384 42.3588 85.5508C42.3402 85.557 42.3154 85.5694 42.2906 85.5756C42.2658 85.5818 42.241 85.588 42.2162 85.5942C42.1914 85.6004 42.1728 85.6066 42.148 85.6128C42.1232 85.619 42.0984 85.6252 42.0736 85.6252C42.0488 85.6314 42.0302 85.6314 42.0054 85.6376C41.9806 85.6376 41.9558 85.6438 41.931 85.6438C41.9062 85.6438 41.8876 85.6438 41.8628 85.65H41.838C41.8194 85.65 41.807 85.65 41.7884 85.65C41.7636 85.65 41.7388 85.65 41.7202 85.6438C41.6954 85.6438 41.6706 85.6376 41.6458 85.6376C41.621 85.6376 41.5962 85.6314 41.5776 85.6252C41.5528 85.619 41.528 85.619 41.5032 85.6128C41.4784 85.6066 41.4536 85.6004 41.4288 85.5942C41.404 85.588 41.3792 85.5818 41.3544 85.5694C41.3296 85.5632 41.3048 85.5508 41.2862 85.5446C41.2614 85.5384 41.2428 85.526 41.218 85.5136C41.1932 85.5012 41.1746 85.495 41.1498 85.4826C41.125 85.4702 41.1002 85.4578 41.0816 85.4454C41.063 85.433 41.0382 85.4206 41.0196 85.4082C40.9948 85.3958 40.9762 85.3772 40.9514 85.3648C40.9328 85.3524 40.9142 85.3338 40.8956 85.3214C40.877 85.309 40.8584 85.2904 40.8398 85.2718C40.8274 85.2594 40.815 85.247 40.8026 85.2408L31.3786 76.505L31.3476 76.474C30.3184 75.4448 29.7542 74.0746 29.7542 72.6238V51.5438C29.7542 50.217 28.6754 49.132 27.3424 49.132C26.0156 49.132 24.9306 50.2108 24.9306 51.5438V80.0452C24.9306 80.6156 25.1352 81.1736 25.5072 81.6076L40.1082 98.7072C40.9514 99.693 41.4102 100.952 41.4102 102.247V103.01C41.4102 103.847 40.7282 104.529 39.8912 104.529C39.0542 104.529 38.3722 103.847 38.3722 103.01V102.247C38.3722 101.677 38.1676 101.119 37.7956 100.685L23.1946 83.5854C22.3514 82.5996 21.8926 81.341 21.8926 80.0452V51.5438C21.8926 48.5368 24.3354 46.094 27.3424 46.094C30.3494 46.094 32.7922 48.5368 32.7922 51.5438V71.638C32.9224 71.4644 33.065 71.297 33.22 71.142C34.0756 70.2864 35.2474 69.8028 36.4378 69.8028C36.475 69.8028 36.5184 69.8028 36.5556 69.8028C37.7646 69.8338 38.8806 70.3422 39.699 71.2288L56.0856 87.6154C57.0156 88.4028 57.5488 89.5808 57.5488 90.8642V103.016C57.5488 103.847 56.8668 104.529 56.0298 104.529Z" fill="#949FA3"/>
<path d="M27.3363 46.59C30.0643 46.59 32.2901 48.8096 32.2901 51.5438V72.6176C32.2901 72.9462 32.3459 73.2624 32.4451 73.5662C32.6063 72.785 32.9907 72.0658 33.5673 71.4892C34.3547 70.7018 35.4397 70.2616 36.5433 70.2926C37.6221 70.3174 38.6141 70.77 39.3395 71.5698L55.7509 87.9812C56.5817 88.6756 57.0529 89.7172 57.0529 90.8642V103.016C57.0529 103.58 56.5941 104.039 56.0299 104.039C55.4657 104.039 55.0069 103.58 55.0069 103.016V90.8642C55.0069 90.3248 54.7961 89.8412 54.4179 89.5374L54.3745 89.5002L37.8701 72.9958L37.8329 72.9586C37.4857 72.5742 37.0021 72.351 36.4813 72.3386C35.9357 72.3262 35.4025 72.5432 35.0057 72.9338C34.1997 73.7398 34.1997 75.048 35.0057 75.854L42.5511 83.3994C42.5573 83.4056 42.5635 83.418 42.5697 83.4242C42.5821 83.4366 42.5945 83.449 42.6069 83.4614C42.6193 83.4738 42.6255 83.4862 42.6379 83.4986C42.6503 83.511 42.6565 83.5296 42.6689 83.542C42.6813 83.5544 42.6875 83.5668 42.6937 83.5854C42.6999 83.5978 42.7123 83.6164 42.7185 83.6288C42.7247 83.6412 42.7309 83.6598 42.7433 83.6722C42.7495 83.6846 42.7557 83.7032 42.7619 83.7156C42.7681 83.7342 42.7743 83.7466 42.7805 83.7652C42.7867 83.7776 42.7929 83.7962 42.7991 83.8086C42.8053 83.8272 42.8115 83.8396 42.8115 83.8582C42.8177 83.8706 42.8177 83.8892 42.8239 83.9016C42.8301 83.9202 42.8301 83.9326 42.8301 83.9512C42.8301 83.9698 42.8363 83.9822 42.8363 84.0008C42.8363 84.0194 42.8425 84.0318 42.8425 84.0504C42.8425 84.069 42.8425 84.0814 42.8425 84.1C42.8425 84.1186 42.8425 84.131 42.8425 84.1496C42.8425 84.1682 42.8425 84.1806 42.8425 84.1992C42.8425 84.2178 42.8425 84.2302 42.8363 84.2488C42.8363 84.2674 42.8301 84.2798 42.8301 84.2984C42.8301 84.317 42.8239 84.3294 42.8177 84.3418C42.8115 84.3604 42.8115 84.3728 42.8053 84.3914C42.7991 84.4038 42.7991 84.4224 42.7929 84.4348C42.7867 84.4534 42.7805 84.4658 42.7743 84.4844C42.7681 84.4968 42.7619 84.5154 42.7557 84.5278C42.7495 84.5402 42.7433 84.5588 42.7371 84.5712C42.7309 84.5836 42.7185 84.6022 42.7123 84.6146C42.7061 84.627 42.6937 84.6456 42.6875 84.658C42.6813 84.6704 42.6689 84.689 42.6565 84.7014C42.6441 84.7138 42.6379 84.7262 42.6255 84.7448C42.6131 84.7572 42.6007 84.7696 42.5945 84.782C42.5883 84.7882 42.5821 84.8006 42.5759 84.8068C42.5697 84.813 42.5635 84.813 42.5635 84.8192C42.5573 84.8254 42.5573 84.8316 42.5511 84.8316C42.5449 84.8378 42.5325 84.844 42.5263 84.8502C42.5139 84.8626 42.5015 84.875 42.4829 84.8874C42.4705 84.8998 42.4581 84.906 42.4457 84.9184C42.4333 84.9308 42.4147 84.9432 42.4023 84.9494C42.3899 84.9556 42.3775 84.968 42.3589 84.9742C42.3465 84.9804 42.3279 84.9928 42.3155 84.999C42.3031 85.0052 42.2845 85.0114 42.2721 85.0238C42.2597 85.03 42.2411 85.0362 42.2287 85.0424C42.2101 85.0486 42.1977 85.0548 42.1791 85.061C42.1667 85.0672 42.1481 85.0734 42.1357 85.0796C42.1171 85.0858 42.1047 85.092 42.0861 85.092C42.0737 85.0982 42.0551 85.0982 42.0427 85.1044C42.0241 85.1106 42.0117 85.1106 41.9931 85.1106C41.9807 85.1106 41.9621 85.1168 41.9497 85.1168C41.9311 85.1168 41.9187 85.123 41.9001 85.123C41.8815 85.123 41.8691 85.123 41.8505 85.123C41.8319 85.123 41.8195 85.123 41.8009 85.123C41.7823 85.123 41.7699 85.123 41.7513 85.123C41.7327 85.123 41.7203 85.1168 41.7017 85.1168C41.6831 85.1168 41.6707 85.1106 41.6521 85.1106C41.6335 85.1106 41.6211 85.1044 41.6025 85.0982C41.5839 85.092 41.5715 85.092 41.5529 85.0858C41.5343 85.0796 41.5219 85.0734 41.5033 85.0734C41.4847 85.0672 41.4723 85.061 41.4599 85.0548C41.4413 85.0486 41.4289 85.0424 41.4103 85.0362C41.3979 85.03 41.3793 85.0238 41.3669 85.0176C41.3483 85.0114 41.3359 84.999 41.3235 84.9928C41.3111 84.9866 41.2987 84.9742 41.2801 84.968C41.2677 84.9556 41.2491 84.9494 41.2367 84.937C41.2243 84.9246 41.2119 84.9184 41.1995 84.906C41.1871 84.8936 41.1747 84.8812 41.1561 84.8688C41.1499 84.8626 41.1375 84.8564 41.1313 84.8502L31.7135 76.1206L31.6887 76.0958C30.7525 75.1596 30.2379 73.9196 30.2379 72.5928V51.5438C30.2379 49.938 28.9359 48.636 27.3301 48.636C25.7243 48.636 24.4223 49.938 24.4223 51.5438V80.0452C24.4223 80.7396 24.6703 81.4092 25.1167 81.93L39.7177 99.0296C40.4803 99.9224 40.9019 101.069 40.9019 102.247V103.01C40.9019 103.574 40.4431 104.033 39.8789 104.033C39.3147 104.033 38.8559 103.574 38.8559 103.01V102.247C38.8559 101.553 38.6079 100.883 38.1615 100.363L23.5729 83.263C22.8103 82.3702 22.3887 81.2232 22.3887 80.0452V51.5438C22.3825 48.8096 24.6083 46.59 27.3363 46.59Z" fill="#949FA3"/>
</g>
<defs>
<clipPath id="clip0_58_250">
<rect width="124" height="124" fill="white" transform="translate(0 0.492981)"/>
</clipPath>
</defs>
</svg>
