<svg width="195" height="218" viewBox="0 0 195 218" fill="none" xmlns="http://www.w3.org/2000/svg">
<path d="M159.181 188.611C159.181 196.915 156.512 203.736 151.174 209.074C145.835 215.005 139.015 217.97 130.711 217.97C122.407 217.97 115.587 215.005 110.249 209.074C104.91 203.736 102.241 196.915 102.241 188.611L102.241 135.231C102.241 110.32 106.986 85.7054 116.476 61.3876C125.966 36.4767 141.98 16.0141 164.519 2.64445e-06L194.768 29.3593C182.905 41.8148 174.008 56.6426 168.077 73.843C162.146 91.0434 159.181 111.506 159.181 135.231L159.181 188.611Z" fill="#4C4D4E" fill-opacity="0.07"/>
<path d="M57.7368 188.611C57.7368 196.915 55.0678 203.736 49.7298 209.074C44.3917 215.005 37.5709 217.97 29.2673 217.97C20.9636 217.97 14.1428 215.005 8.80475 209.074C3.4667 203.736 0.797667 196.915 0.797666 188.611L0.797661 135.231C0.797659 110.32 5.54259 85.7054 15.0325 61.3876C24.5223 36.4767 40.5365 16.0142 63.0749 1.15129e-05L93.3238 29.3593C81.4615 41.8148 72.5647 56.6426 66.6336 73.843C60.7024 91.0434 57.7368 111.506 57.7368 135.231L57.7368 188.611Z" fill="#4C4D4E" fill-opacity="0.07"/>
</svg>
