<svg width="58" height="58" viewBox="0 0 58 58" fill="none" xmlns="http://www.w3.org/2000/svg">
<g clip-path="url(#clip0_1753_21)">
<path d="M32.6482 30.8038H31.3142V21.5992H29V20.2652H31.4534C32.1117 20.2652 32.6482 20.8017 32.6482 21.46V30.8038Z" fill="#949FA3"/>
<path d="M18.4904 20.8017C18.2845 20.8017 18.0786 20.7495 17.893 20.6451C17.5044 20.4276 17.2637 20.0187 17.2637 19.575V16.8055C17.2637 16.3821 17.487 15.9819 17.8495 15.7615L28.4374 9.25973C28.7854 9.04803 29.2146 9.04803 29.5626 9.25973L40.1505 15.7615C40.5101 15.9819 40.7363 16.385 40.7363 16.8055V19.575C40.7363 20.0187 40.4956 20.4305 40.107 20.6451C39.7184 20.8626 39.2428 20.851 38.8658 20.619L29 14.5435L19.1342 20.619C18.937 20.7408 18.7137 20.8017 18.4904 20.8017ZM29 13.1631C29.1943 13.1631 29.3886 13.2153 29.5626 13.3226L39.4023 19.3807V16.8635L29 10.4777L18.5977 16.8635V19.3807L28.4374 13.3226C28.6114 13.2182 28.8057 13.1631 29 13.1631Z" fill="#949FA3"/>
<path d="M37.6046 31.4708H20.396C19.7377 31.4708 19.2012 30.9343 19.2012 30.276V19.3633H20.5352V30.1368H37.4625V19.3633H38.7965V30.276C38.7994 30.9343 38.2629 31.4708 37.6046 31.4708Z" fill="#949FA3"/>
<path d="M26.6856 30.8038H25.3516V21.46C25.3516 20.8017 25.8881 20.2652 26.5464 20.2652H28.9998V21.5992H26.6856V30.8038V30.8038Z" fill="#949FA3"/>
<path d="M39.5297 48.662C39.1382 48.662 38.8192 48.343 38.8192 47.9515V47.5948C38.8192 46.9887 39.0367 46.4 39.4282 45.9389L46.2577 37.9407C46.4317 37.7377 46.5274 37.4767 46.5274 37.2099V23.8786C46.5274 23.258 46.0228 22.7505 45.3993 22.7505C44.7787 22.7505 44.2712 23.2551 44.2712 23.8786V33.7357C44.2712 34.4172 44.0073 35.0552 43.5259 35.5366L43.5056 35.554L39.1005 39.6372C39.0947 39.643 39.0889 39.6488 39.0831 39.6517C39.0744 39.6604 39.0657 39.6662 39.057 39.6749C39.0483 39.6836 39.0396 39.6894 39.028 39.6952C39.0164 39.7039 39.0077 39.7097 38.9961 39.7155C38.9874 39.7213 38.9758 39.7271 38.9671 39.7329C38.9584 39.7387 38.9468 39.7445 38.9352 39.7503C38.9236 39.7561 38.9149 39.759 38.9033 39.7648C38.8917 39.7706 38.8801 39.7735 38.8714 39.7793C38.8627 39.7822 38.8511 39.788 38.8395 39.7909C38.8279 39.7938 38.8163 39.7996 38.8047 39.8025C38.7931 39.8054 38.7815 39.8083 38.7699 39.8112C38.7583 39.8141 38.7467 39.817 38.7351 39.817C38.7235 39.8199 38.7119 39.8199 38.7003 39.8228C38.6887 39.8228 38.6771 39.8257 38.6655 39.8257C38.6539 39.8257 38.6423 39.8257 38.6307 39.8286C38.622 39.8286 38.6133 39.8286 38.6075 39.8286H38.5959C38.5843 39.8286 38.5727 39.8286 38.5611 39.8257C38.5495 39.8257 38.5379 39.8228 38.5263 39.8228C38.5147 39.8228 38.506 39.8199 38.4944 39.817C38.4828 39.8141 38.4712 39.8141 38.4596 39.8112C38.448 39.8083 38.4393 39.8054 38.4277 39.8025C38.4161 39.7996 38.4045 39.7967 38.3929 39.7938C38.3813 39.7909 38.3726 39.788 38.361 39.7822C38.3494 39.7793 38.3407 39.7735 38.3291 39.7706C38.3175 39.7648 38.3059 39.7619 38.2972 39.7561C38.2885 39.7503 38.2769 39.7474 38.2653 39.7416C38.2566 39.7358 38.245 39.73 38.2363 39.7242C38.2247 39.7184 38.216 39.7126 38.2073 39.7068C38.1986 39.701 38.187 39.6923 38.1783 39.6836C38.1696 39.6778 38.1609 39.6691 38.1522 39.6633C38.1435 39.6546 38.1348 39.6459 38.1261 39.6401C38.1203 39.6343 38.1145 39.6285 38.1087 39.6227C38.1058 39.6198 38.1029 39.6169 38.1 39.614C38.0971 39.6111 38.0942 39.6082 38.0913 39.6053C38.0855 39.5995 38.0797 39.5937 38.0739 39.585C38.0652 39.5763 38.0594 39.5676 38.0507 39.5589C38.042 39.5502 38.0362 39.5386 38.0304 39.5299C38.0246 39.5212 38.0159 39.5096 38.0101 39.5009C38.0043 39.4922 37.9985 39.4806 37.9927 39.4719C37.9869 39.4603 37.9811 39.4516 37.9753 39.44C37.9695 39.4284 37.9637 39.4197 37.9608 39.4081C37.9579 39.3994 37.9521 39.3878 37.9492 39.3762C37.9463 39.3646 37.9405 39.353 37.9376 39.3414C37.9347 39.3327 37.9318 39.3211 37.9289 39.3095C37.926 39.2979 37.9231 39.2863 37.9202 39.2747C37.9173 39.2631 37.9144 39.2544 37.9144 39.2428C37.9115 39.2312 37.9115 39.2196 37.9086 39.208C37.9086 39.1964 37.9057 39.1848 37.9057 39.1761C37.9057 39.1645 37.9057 39.1529 37.9028 39.1413C37.9028 39.1297 37.9028 39.1181 37.9028 39.1065C37.9028 39.0949 37.9028 39.0833 37.9057 39.0717C37.9057 39.0601 37.9086 39.0485 37.9086 39.0369C37.9086 39.0253 37.9115 39.0166 37.9144 39.005C37.9173 38.9934 37.9173 38.9818 37.9202 38.9702C37.9231 38.9586 37.926 38.9499 37.9289 38.9383C37.9318 38.9267 37.9347 38.9151 37.9376 38.9035C37.9405 38.8948 37.9434 38.8832 37.9492 38.8716C37.9521 38.86 37.9579 38.8484 37.9608 38.8397C37.9666 38.8281 37.9695 38.8194 37.9753 38.8078C37.9811 38.7962 37.9869 38.7875 37.9927 38.7759C37.9985 38.7672 38.0043 38.7556 38.0101 38.7469C38.0159 38.7353 38.0217 38.7266 38.0275 38.7179C38.0333 38.7063 38.042 38.6976 38.0507 38.6889C38.0565 38.6802 38.0652 38.6715 38.071 38.6628C38.0797 38.6541 38.0855 38.6454 38.0942 38.6367C38.1 38.6309 38.1058 38.6251 38.1116 38.6193L41.6409 35.09C41.928 34.8029 41.928 34.3389 41.6409 34.0518C41.5075 33.9184 41.3248 33.8401 41.1392 33.8401C41.1334 33.8401 41.1276 33.8401 41.1218 33.8401C40.942 33.8459 40.7767 33.9213 40.6578 34.0547L40.6317 34.0808L32.9031 41.8093L32.8741 41.8325C32.7552 41.9282 32.6856 42.0877 32.6856 42.2733V47.9573C32.6856 48.3488 32.3666 48.6678 31.9751 48.6678C31.5836 48.6678 31.2646 48.3488 31.2646 47.9573V42.2733C31.2646 41.6759 31.514 41.122 31.949 40.7537L39.6138 33.089C39.9966 32.6743 40.5186 32.4365 41.0841 32.422C41.1015 32.422 41.1218 32.422 41.1392 32.422C41.696 32.422 42.2441 32.6511 42.6443 33.0484C42.7168 33.1209 42.7835 33.1992 42.8444 33.2804V23.8786C42.8444 22.4721 43.987 21.3295 45.3935 21.3295C46.8 21.3295 47.9426 22.4721 47.9426 23.8786V37.2099C47.9426 37.816 47.7251 38.4047 47.3336 38.8658L40.5099 46.864C40.3359 47.067 40.2402 47.328 40.2402 47.5948V47.9515C40.2402 48.343 39.9212 48.662 39.5297 48.662Z" fill="#949FA3"/>
<path d="M45.2386 21.5161C43.9626 21.5161 42.9215 22.5543 42.9215 23.8332V33.6903C42.9215 33.844 42.8954 33.9919 42.849 34.134C42.7736 33.7686 42.5938 33.4322 42.3241 33.1625C41.9558 32.7942 41.4483 32.5883 40.9321 32.6028C40.4275 32.6144 39.9635 32.8261 39.6242 33.2002L31.9479 40.8765C31.5593 41.2013 31.3389 41.6885 31.3389 42.225V47.909C31.3389 48.1729 31.5535 48.3875 31.8174 48.3875C32.0813 48.3875 32.2959 48.1729 32.2959 47.909V42.225C32.2959 41.9727 32.3945 41.7465 32.5714 41.6044L32.5917 41.587L40.3115 33.8672L40.3289 33.8498C40.4913 33.67 40.7175 33.5656 40.9611 33.5598C41.2163 33.554 41.4657 33.6555 41.6513 33.8382C42.0283 34.2152 42.0283 34.8271 41.6513 35.2041L38.1191 38.7363C38.1162 38.7392 38.1133 38.745 38.1104 38.7479C38.1046 38.7537 38.0988 38.7595 38.093 38.7653C38.0872 38.7711 38.0843 38.7769 38.0785 38.7827C38.0727 38.7885 38.0698 38.7972 38.064 38.803C38.0582 38.8088 38.0553 38.8146 38.0524 38.8233C38.0495 38.8291 38.0437 38.8378 38.0408 38.8436C38.0379 38.8494 38.035 38.8581 38.0292 38.8639C38.0263 38.8697 38.0234 38.8784 38.0205 38.8842C38.0176 38.8929 38.0147 38.8987 38.0118 38.9074C38.0089 38.9132 38.006 38.9219 38.0031 38.9277C38.0002 38.9364 37.9973 38.9422 37.9973 38.9509C37.9944 38.9567 37.9944 38.9654 37.9915 38.9712C37.9886 38.9799 37.9886 38.9857 37.9886 38.9944C37.9886 39.0031 37.9857 39.0089 37.9857 39.0176C37.9857 39.0263 37.9828 39.0321 37.9828 39.0408C37.9828 39.0495 37.9828 39.0553 37.9828 39.064C37.9828 39.0727 37.9828 39.0785 37.9828 39.0872C37.9828 39.0959 37.9828 39.1017 37.9828 39.1104C37.9828 39.1191 37.9828 39.1249 37.9857 39.1336C37.9857 39.1423 37.9886 39.1481 37.9886 39.1568C37.9886 39.1655 37.9915 39.1713 37.9944 39.1771C37.9973 39.1858 37.9973 39.1916 38.0002 39.2003C38.0031 39.2061 38.0031 39.2148 38.006 39.2206C38.0089 39.2293 38.0118 39.2351 38.0147 39.2438C38.0176 39.2496 38.0205 39.2583 38.0234 39.2641C38.0263 39.2699 38.0292 39.2786 38.0321 39.2844C38.035 39.2902 38.0408 39.2989 38.0437 39.3047C38.0466 39.3105 38.0524 39.3192 38.0553 39.325C38.0582 39.3308 38.064 39.3395 38.0698 39.3453C38.0756 39.3511 38.0785 39.3569 38.0843 39.3656C38.0901 39.3714 38.0959 39.3772 38.0988 39.383C38.1017 39.3859 38.1046 39.3917 38.1075 39.3946C38.1104 39.3975 38.1133 39.3975 38.1133 39.4004C38.1162 39.4033 38.1162 39.4062 38.1191 39.4062C38.122 39.4091 38.1278 39.412 38.1307 39.4149C38.1365 39.4207 38.1423 39.4265 38.151 39.4323C38.1568 39.4381 38.1626 39.441 38.1684 39.4468C38.1742 39.4526 38.1829 39.4584 38.1887 39.4613C38.1945 39.4642 38.2003 39.47 38.209 39.4729C38.2148 39.4758 38.2235 39.4816 38.2293 39.4845C38.2351 39.4874 38.2438 39.4903 38.2496 39.4961C38.2554 39.499 38.2641 39.5019 38.2699 39.5048C38.2786 39.5077 38.2844 39.5106 38.2931 39.5135C38.2989 39.5164 38.3076 39.5193 38.3134 39.5222C38.3221 39.5251 38.3279 39.528 38.3366 39.528C38.3424 39.5309 38.3511 39.5309 38.3569 39.5338C38.3656 39.5367 38.3714 39.5367 38.3801 39.5367C38.3859 39.5367 38.3946 39.5396 38.4004 39.5396C38.4091 39.5396 38.4149 39.5425 38.4236 39.5425C38.4323 39.5425 38.4381 39.5425 38.4468 39.5425C38.4555 39.5425 38.4613 39.5425 38.47 39.5425C38.4787 39.5425 38.4845 39.5425 38.4932 39.5425C38.5019 39.5425 38.5077 39.5396 38.5164 39.5396C38.5251 39.5396 38.5309 39.5367 38.5396 39.5367C38.5483 39.5367 38.5541 39.5338 38.5628 39.5309C38.5715 39.528 38.5773 39.528 38.586 39.5251C38.5947 39.5222 38.6005 39.5193 38.6092 39.5193C38.6179 39.5164 38.6237 39.5135 38.6295 39.5106C38.6382 39.5077 38.644 39.5048 38.6527 39.5019C38.6585 39.499 38.6672 39.4961 38.673 39.4932C38.6817 39.4903 38.6875 39.4845 38.6933 39.4816C38.6991 39.4787 38.7049 39.4729 38.7136 39.47C38.7194 39.4642 38.7281 39.4613 38.7339 39.4555C38.7397 39.4497 38.7455 39.4468 38.7513 39.441C38.7571 39.4352 38.7629 39.4294 38.7716 39.4236C38.7745 39.4207 38.7803 39.4178 38.7832 39.4149L43.1883 35.3317L43.1999 35.3201C43.6378 34.8822 43.8785 34.3022 43.8785 33.6816V23.8332C43.8785 23.0821 44.4875 22.4731 45.2386 22.4731C45.9897 22.4731 46.5987 23.0821 46.5987 23.8332V37.1645C46.5987 37.4893 46.4827 37.8025 46.2739 38.0461L39.4444 46.0443C39.0877 46.4619 38.8905 46.9984 38.8905 47.5494V47.9061C38.8905 48.17 39.1051 48.3846 39.369 48.3846C39.6329 48.3846 39.8475 48.17 39.8475 47.9061V47.5494C39.8475 47.2246 39.9635 46.9114 40.1723 46.6678L47.0018 38.6696C47.3585 38.252 47.5557 37.7155 47.5557 37.1645V23.8332C47.5557 22.5543 46.5175 21.5161 45.2386 21.5161Z" fill="#949FA3"/>
<path d="M26.2076 48.662C25.8161 48.662 25.4971 48.343 25.4971 47.9515V42.2675C25.4971 42.0848 25.4275 41.9253 25.3086 41.8267L25.2796 41.8035L17.5482 34.0721L17.5279 34.0489C17.409 33.9155 17.2437 33.8401 17.0639 33.8343C17.0581 33.8343 17.0523 33.8343 17.0465 33.8343C16.8609 33.8343 16.6782 33.9126 16.5448 34.046C16.2577 34.3331 16.2577 34.7971 16.5448 35.0842L20.0741 38.6135C20.0799 38.6193 20.0857 38.6251 20.0915 38.6309C20.1002 38.6396 20.106 38.6483 20.1147 38.657C20.1234 38.6657 20.1292 38.6744 20.135 38.6831C20.1437 38.6918 20.1495 38.7034 20.1553 38.7121C20.1611 38.7208 20.1669 38.7324 20.1727 38.7411C20.1785 38.7498 20.1843 38.7614 20.1901 38.773C20.1959 38.7846 20.2017 38.7933 20.2075 38.8049C20.2133 38.8136 20.2162 38.8252 20.222 38.8368C20.2278 38.8484 20.2307 38.86 20.2336 38.8687C20.2365 38.8803 20.2423 38.889 20.2452 38.9006C20.2481 38.9122 20.251 38.9238 20.2539 38.9354C20.2568 38.947 20.2597 38.9557 20.2626 38.9673C20.2655 38.9789 20.2684 38.9905 20.2684 39.0021C20.2713 39.0137 20.2713 39.0253 20.2742 39.034C20.2742 39.0456 20.2771 39.0572 20.2771 39.0688C20.2771 39.0804 20.2771 39.092 20.28 39.1036C20.28 39.1152 20.28 39.1268 20.28 39.1384C20.28 39.15 20.28 39.1616 20.2771 39.1732C20.2771 39.1848 20.2742 39.1964 20.2742 39.2051C20.2713 39.2167 20.2713 39.2283 20.2684 39.2399C20.2655 39.2486 20.2655 39.2602 20.2626 39.2718C20.2597 39.2834 20.2568 39.295 20.2539 39.3066C20.251 39.3182 20.2481 39.3269 20.2452 39.3385C20.2423 39.3501 20.2365 39.3617 20.2336 39.3733C20.2307 39.3849 20.2249 39.3936 20.2191 39.4052C20.2133 39.4168 20.2104 39.4255 20.2046 39.4371C20.1988 39.4487 20.193 39.4574 20.1872 39.469C20.1814 39.4806 20.1756 39.4893 20.1698 39.5009C20.164 39.5096 20.1582 39.5212 20.1495 39.5299C20.1437 39.5386 20.135 39.5502 20.1292 39.5589C20.1234 39.5676 20.1147 39.5763 20.106 39.585C20.1002 39.5908 20.0944 39.5995 20.0886 39.6053C20.0857 39.6082 20.0828 39.6111 20.0799 39.614C20.077 39.6169 20.0741 39.6198 20.0712 39.6227C20.0654 39.6285 20.0596 39.6343 20.0538 39.6401C20.0451 39.6488 20.0364 39.6575 20.0277 39.6633C20.019 39.672 20.0103 39.6778 20.0016 39.6836C19.99 39.6923 19.9813 39.6981 19.9697 39.7068C19.961 39.7126 19.9523 39.7184 19.9407 39.7242C19.9291 39.73 19.9204 39.7358 19.9088 39.7416C19.9001 39.7474 19.8885 39.7532 19.8769 39.7561C19.8653 39.7619 19.8566 39.7648 19.845 39.7706C19.8334 39.7764 19.8218 39.7793 19.8131 39.7851C19.8044 39.788 19.7928 39.7938 19.7812 39.7967C19.7696 39.7996 19.758 39.8025 19.7464 39.8054C19.7348 39.8083 19.7261 39.8112 19.7145 39.8141C19.7029 39.817 19.6913 39.8199 19.6797 39.8199C19.6681 39.8228 19.6594 39.8228 19.6478 39.8257C19.6362 39.8257 19.6246 39.8286 19.613 39.8286C19.6014 39.8286 19.5927 39.8286 19.5811 39.8315H19.5695C19.5608 39.8315 19.555 39.8315 19.5463 39.8315C19.5347 39.8315 19.5231 39.8315 19.5144 39.8286C19.5028 39.8286 19.4912 39.8257 19.4796 39.8257C19.468 39.8257 19.4564 39.8228 19.4477 39.8199C19.4361 39.817 19.4245 39.817 19.4129 39.8141C19.4013 39.8112 19.3897 39.8083 19.3781 39.8054C19.3665 39.8025 19.3549 39.7996 19.3433 39.7938C19.3317 39.7909 19.3201 39.7851 19.3114 39.7822C19.2998 39.7793 19.2911 39.7735 19.2795 39.7677C19.2679 39.7619 19.2592 39.759 19.2476 39.7532C19.236 39.7474 19.2244 39.7416 19.2157 39.7358C19.207 39.73 19.1954 39.7242 19.1867 39.7184C19.1751 39.7126 19.1664 39.7039 19.1548 39.6981C19.1461 39.6923 19.1374 39.6836 19.1287 39.6778C19.12 39.672 19.1113 39.6633 19.1026 39.6546C19.0968 39.6488 19.091 39.643 19.0852 39.6401L14.6772 35.554L14.6627 35.5395C14.1813 35.0581 13.9174 34.4172 13.9174 33.7386V23.8786C13.9174 23.258 13.4128 22.7505 12.7893 22.7505C12.1687 22.7505 11.6612 23.2551 11.6612 23.8786V37.2099C11.6612 37.4767 11.7569 37.7377 11.9309 37.9407L18.7604 45.9389C19.1548 46.4 19.3694 46.9887 19.3694 47.5948V47.9515C19.3694 48.343 19.0504 48.662 18.6589 48.662C18.2674 48.662 17.9484 48.343 17.9484 47.9515V47.5948C17.9484 47.328 17.8527 47.067 17.6787 46.864L10.8492 38.8658C10.4548 38.4047 10.2402 37.816 10.2402 37.2099V23.8786C10.2402 22.4721 11.3828 21.3295 12.7893 21.3295C14.1958 21.3295 15.3384 22.4721 15.3384 23.8786V33.2775C15.3993 33.1963 15.466 33.118 15.5385 33.0455C15.9387 32.6453 16.4868 32.4191 17.0436 32.4191C17.061 32.4191 17.0813 32.4191 17.0987 32.4191C17.6642 32.4336 18.1862 32.6714 18.569 33.0861L26.2337 40.7508C26.6687 41.1191 26.9181 41.6701 26.9181 42.2704V47.9544C26.9181 48.343 26.5991 48.662 26.2076 48.662Z" fill="#949FA3"/>
<path d="M12.7859 21.5615C14.0619 21.5615 15.103 22.5997 15.103 23.8786V33.7357C15.103 33.8894 15.1291 34.0373 15.1755 34.1794C15.2509 33.814 15.4307 33.4776 15.7004 33.2079C16.0687 32.8396 16.5762 32.6337 17.0924 32.6482C17.597 32.6598 18.061 32.8715 18.4003 33.2456L26.0766 40.9219C26.4652 41.2467 26.6856 41.7339 26.6856 42.2704V47.9544C26.6856 48.2183 26.471 48.4329 26.2071 48.4329C25.9432 48.4329 25.7286 48.2183 25.7286 47.9544V42.2704C25.7286 42.0181 25.63 41.7919 25.4531 41.6498L25.4328 41.6324L17.713 33.9126L17.6956 33.8952C17.5332 33.7154 17.307 33.611 17.0634 33.6052C16.8082 33.5994 16.5588 33.7009 16.3732 33.8836C15.9962 34.2606 15.9962 34.8725 16.3732 35.2495L19.9025 38.7788C19.9054 38.7817 19.9083 38.7875 19.9112 38.7904C19.917 38.7962 19.9228 38.802 19.9286 38.8078C19.9344 38.8136 19.9373 38.8194 19.9431 38.8252C19.9489 38.831 19.9518 38.8397 19.9576 38.8455C19.9634 38.8513 19.9663 38.8571 19.9692 38.8658C19.9721 38.8716 19.9779 38.8803 19.9808 38.8861C19.9837 38.8919 19.9866 38.9006 19.9924 38.9064C19.9953 38.9122 19.9982 38.9209 20.0011 38.9267C20.004 38.9354 20.0069 38.9412 20.0098 38.9499C20.0127 38.9557 20.0156 38.9644 20.0185 38.9702C20.0214 38.9789 20.0243 38.9847 20.0243 38.9934C20.0272 38.9992 20.0272 39.0079 20.0301 39.0137C20.033 39.0224 20.033 39.0282 20.033 39.0369C20.033 39.0456 20.0359 39.0514 20.0359 39.0601C20.0359 39.0688 20.0388 39.0746 20.0388 39.0833C20.0388 39.092 20.0388 39.0978 20.0388 39.1065C20.0388 39.1152 20.0388 39.121 20.0388 39.1297C20.0388 39.1384 20.0388 39.1442 20.0388 39.1529C20.0388 39.1616 20.0388 39.1674 20.0359 39.1761C20.0359 39.1848 20.033 39.1906 20.033 39.1993C20.033 39.208 20.0301 39.2138 20.0272 39.2196C20.0243 39.2283 20.0243 39.2341 20.0214 39.2428C20.0185 39.2486 20.0185 39.2573 20.0156 39.2631C20.0127 39.2718 20.0098 39.2776 20.0069 39.2863C20.004 39.2921 20.0011 39.3008 19.9982 39.3066C19.9953 39.3124 19.9924 39.3211 19.9895 39.3269C19.9866 39.3327 19.9808 39.3414 19.9779 39.3472C19.975 39.353 19.9692 39.3617 19.9663 39.3675C19.9634 39.3733 19.9576 39.382 19.9518 39.3878C19.946 39.3936 19.9431 39.3994 19.9373 39.4081C19.9315 39.4139 19.9257 39.4197 19.9228 39.4255C19.9199 39.4284 19.917 39.4342 19.9141 39.4371C19.9112 39.44 19.9083 39.44 19.9083 39.4429C19.9054 39.4458 19.9054 39.4487 19.9025 39.4487C19.8996 39.4516 19.8938 39.4545 19.8909 39.4574C19.8851 39.4632 19.8793 39.469 19.8706 39.4748C19.8648 39.4806 19.859 39.4835 19.8532 39.4893C19.8474 39.4951 19.8387 39.5009 19.8329 39.5038C19.8271 39.5067 19.8213 39.5125 19.8126 39.5154C19.8068 39.5183 19.7981 39.5241 19.7923 39.527C19.7865 39.5299 19.7778 39.5328 19.772 39.5386C19.7662 39.5415 19.7575 39.5444 19.7517 39.5473C19.743 39.5502 19.7372 39.5531 19.7285 39.556C19.7227 39.5589 19.714 39.5618 19.7082 39.5647C19.6995 39.5676 19.6937 39.5705 19.685 39.5705C19.6792 39.5734 19.6705 39.5734 19.6647 39.5763C19.656 39.5792 19.6502 39.5792 19.6415 39.5792C19.6357 39.5792 19.627 39.5821 19.6212 39.5821C19.6125 39.5821 19.6067 39.585 19.598 39.585C19.5893 39.585 19.5835 39.585 19.5748 39.585C19.5661 39.585 19.5603 39.585 19.5516 39.585C19.5429 39.585 19.5371 39.585 19.5284 39.585C19.5197 39.585 19.5139 39.5821 19.5052 39.5821C19.4965 39.5821 19.4907 39.5792 19.482 39.5792C19.4733 39.5792 19.4675 39.5763 19.4588 39.5734C19.4501 39.5705 19.4443 39.5705 19.4356 39.5676C19.4269 39.5647 19.4211 39.5618 19.4124 39.5618C19.4037 39.5589 19.3979 39.556 19.3921 39.5531C19.3834 39.5502 19.3776 39.5473 19.3689 39.5444C19.3631 39.5415 19.3544 39.5386 19.3486 39.5357C19.3399 39.5328 19.3341 39.527 19.3283 39.5241C19.3225 39.5212 19.3167 39.5154 19.308 39.5125C19.3022 39.5067 19.2935 39.5038 19.2877 39.498C19.2819 39.4922 19.2761 39.4893 19.2703 39.4835C19.2645 39.4777 19.2587 39.4719 19.25 39.4661C19.2471 39.4632 19.2413 39.4603 19.2384 39.4574L14.8333 35.3742L14.8217 35.3626C14.3838 34.9247 14.1431 34.3447 14.1431 33.7241V23.8786C14.1431 23.1275 13.5341 22.5185 12.783 22.5185C12.0319 22.5185 11.4229 23.1275 11.4229 23.8786V37.2099C11.4229 37.5347 11.5389 37.8479 11.7477 38.0915L18.5772 46.0897C18.9339 46.5073 19.1311 47.0438 19.1311 47.5948V47.9515C19.1311 48.2154 18.9165 48.43 18.6526 48.43C18.3887 48.43 18.1741 48.2154 18.1741 47.9515V47.5948C18.1741 47.27 18.0581 46.9568 17.8493 46.7132L11.0256 38.715C10.6689 38.2974 10.4717 37.7609 10.4717 37.2099V23.8786C10.4688 22.5997 11.5099 21.5615 12.7859 21.5615Z" fill="#949FA3"/>
</g>
<defs>
<clipPath id="clip0_1753_21">
<rect width="58" height="58" fill="white"/>
</clipPath>
</defs>
</svg>
