<svg width="158" height="57" viewBox="0 0 158 57" fill="none" xmlns="http://www.w3.org/2000/svg">
<path d="M8.20312 10.5117H3.82031L3.79688 8.09766H7.47656C8.125 8.09766 8.65625 8.01562 9.07031 7.85156C9.48438 7.67969 9.79297 7.43359 9.99609 7.11328C10.207 6.78516 10.3125 6.38672 10.3125 5.91797C10.3125 5.38672 10.2109 4.95703 10.0078 4.62891C9.8125 4.30078 9.50391 4.0625 9.08203 3.91406C8.66797 3.76562 8.13281 3.69141 7.47656 3.69141H5.03906V18H1.52344V0.9375H7.47656C8.46875 0.9375 9.35547 1.03125 10.1367 1.21875C10.9258 1.40625 11.5938 1.69141 12.1406 2.07422C12.6875 2.45703 13.1055 2.94141 13.3945 3.52734C13.6836 4.10547 13.8281 4.79297 13.8281 5.58984C13.8281 6.29297 13.668 6.94141 13.3477 7.53516C13.0352 8.12891 12.5391 8.61328 11.8594 8.98828C11.1875 9.36328 10.3086 9.57031 9.22266 9.60938L8.20312 10.5117ZM8.05078 18H2.85938L4.23047 15.2578H8.05078C8.66797 15.2578 9.17188 15.1602 9.5625 14.9648C9.95312 14.7617 10.2422 14.4883 10.4297 14.1445C10.6172 13.8008 10.7109 13.4062 10.7109 12.9609C10.7109 12.4609 10.625 12.0273 10.4531 11.6602C10.2891 11.293 10.0234 11.0117 9.65625 10.8164C9.28906 10.6133 8.80469 10.5117 8.20312 10.5117H4.81641L4.83984 8.09766H9.05859L9.86719 9.04688C10.9062 9.03125 11.7422 9.21484 12.375 9.59766C13.0156 9.97266 13.4805 10.4609 13.7695 11.0625C14.0664 11.6641 14.2148 12.3086 14.2148 12.9961C14.2148 14.0898 13.9766 15.0117 13.5 15.7617C13.0234 16.5039 12.3242 17.0625 11.4023 17.4375C10.4883 17.8125 9.37109 18 8.05078 18ZM23.7891 3.85547L19.1484 18H15.4102L21.75 0.9375H24.1289L23.7891 3.85547ZM27.6445 18L22.9922 3.85547L22.6172 0.9375H25.0195L31.3945 18H27.6445ZM27.4336 11.6484V14.4023H18.4219V11.6484H27.4336ZM42.6562 12.3398H46.1602C46.0898 13.4883 45.7734 14.5078 45.2109 15.3984C44.6562 16.2891 43.8789 16.9844 42.8789 17.4844C41.8867 17.9844 40.6914 18.2344 39.293 18.2344C38.1992 18.2344 37.2188 18.0469 36.3516 17.6719C35.4844 17.2891 34.7422 16.7422 34.125 16.0312C33.5156 15.3203 33.0508 14.4609 32.7305 13.4531C32.4102 12.4453 32.25 11.3164 32.25 10.0664V8.88281C32.25 7.63281 32.4141 6.50391 32.7422 5.49609C33.0781 4.48047 33.5547 3.61719 34.1719 2.90625C34.7969 2.19531 35.543 1.64844 36.4102 1.26562C37.2773 0.882812 38.2461 0.691406 39.3164 0.691406C40.7383 0.691406 41.9375 0.949219 42.9141 1.46484C43.8984 1.98047 44.6602 2.69141 45.1992 3.59766C45.7461 4.50391 46.0742 5.53516 46.1836 6.69141H42.668C42.6289 6.00391 42.4922 5.42188 42.2578 4.94531C42.0234 4.46094 41.668 4.09766 41.1914 3.85547C40.7227 3.60547 40.0977 3.48047 39.3164 3.48047C38.7305 3.48047 38.2188 3.58984 37.7812 3.80859C37.3438 4.02734 36.9766 4.35938 36.6797 4.80469C36.3828 5.25 36.1602 5.8125 36.0117 6.49219C35.8711 7.16406 35.8008 7.95312 35.8008 8.85938V10.0664C35.8008 10.9492 35.8672 11.7266 36 12.3984C36.1328 13.0625 36.3359 13.625 36.6094 14.0859C36.8906 14.5391 37.25 14.8828 37.6875 15.1172C38.1328 15.3438 38.668 15.457 39.293 15.457C40.0273 15.457 40.6328 15.3398 41.1094 15.1055C41.5859 14.8711 41.9492 14.5234 42.1992 14.0625C42.457 13.6016 42.6094 13.0273 42.6562 12.3398ZM51.9844 0.9375V18H48.4688V0.9375H51.9844ZM62.2031 0.9375L55.4414 9.36328L51.5391 13.5586L50.9062 10.2305L53.543 6.62109L57.8906 0.9375H62.2031ZM58.207 18L53.1797 10.1133L55.7812 7.93359L62.3672 18H58.207ZM76.875 9.08203V15.8438C76.6094 16.1641 76.1992 16.5117 75.6445 16.8867C75.0898 17.2539 74.375 17.5703 73.5 17.8359C72.625 18.1016 71.5664 18.2344 70.3242 18.2344C69.2227 18.2344 68.2188 18.0547 67.3125 17.6953C66.4062 17.3281 65.625 16.793 64.9688 16.0898C64.3203 15.3867 63.8203 14.5273 63.4688 13.5117C63.1172 12.4883 62.9414 11.3203 62.9414 10.0078V8.94141C62.9414 7.62891 63.1094 6.46094 63.4453 5.4375C63.7891 4.41406 64.2773 3.55078 64.9102 2.84766C65.543 2.14453 66.2969 1.60937 67.1719 1.24219C68.0469 0.875 69.0195 0.691406 70.0898 0.691406C71.5742 0.691406 72.793 0.933594 73.7461 1.41797C74.6992 1.89453 75.4258 2.55859 75.9258 3.41016C76.4336 4.25391 76.7461 5.22266 76.8633 6.31641H73.4531C73.3672 5.73828 73.2031 5.23438 72.9609 4.80469C72.7188 4.375 72.3711 4.03906 71.918 3.79688C71.4727 3.55469 70.8945 3.43359 70.1836 3.43359C69.5977 3.43359 69.0742 3.55469 68.6133 3.79688C68.1602 4.03125 67.7773 4.37891 67.4648 4.83984C67.1523 5.30078 66.9141 5.87109 66.75 6.55078C66.5859 7.23047 66.5039 8.01953 66.5039 8.91797V10.0078C66.5039 10.8984 66.5898 11.6875 66.7617 12.375C66.9336 13.0547 67.1875 13.6289 67.5234 14.0977C67.8672 14.5586 68.2891 14.9062 68.7891 15.1406C69.2891 15.375 69.8711 15.4922 70.5352 15.4922C71.0898 15.4922 71.5508 15.4453 71.918 15.3516C72.293 15.2578 72.5938 15.1445 72.8203 15.0117C73.0547 14.8711 73.2344 14.7383 73.3594 14.6133V11.5898H70.1484V9.08203H76.875ZM79.7109 0.9375H86.0742C87.3789 0.9375 88.5 1.13281 89.4375 1.52344C90.3828 1.91406 91.1094 2.49219 91.6172 3.25781C92.125 4.02344 92.3789 4.96484 92.3789 6.08203C92.3789 6.99609 92.2227 7.78125 91.9102 8.4375C91.6055 9.08594 91.1719 9.62891 90.6094 10.0664C90.0547 10.4961 89.4023 10.8398 88.6523 11.0977L87.5391 11.6836H82.0078L81.9844 8.94141H86.0977C86.7148 8.94141 87.2266 8.83203 87.6328 8.61328C88.0391 8.39453 88.3438 8.08984 88.5469 7.69922C88.7578 7.30859 88.8633 6.85547 88.8633 6.33984C88.8633 5.79297 88.7617 5.32031 88.5586 4.92188C88.3555 4.52344 88.0469 4.21875 87.6328 4.00781C87.2188 3.79688 86.6992 3.69141 86.0742 3.69141H83.2266V18H79.7109V0.9375ZM89.25 18L85.3594 10.3945L89.0742 10.3711L93.0117 17.8359V18H89.25ZM109.102 9.07031V9.87891C109.102 11.1758 108.926 12.3398 108.574 13.3711C108.223 14.4023 107.727 15.2812 107.086 16.0078C106.445 16.7266 105.68 17.2773 104.789 17.6602C103.906 18.043 102.926 18.2344 101.848 18.2344C100.777 18.2344 99.7969 18.043 98.9062 17.6602C98.0234 17.2773 97.2578 16.7266 96.6094 16.0078C95.9609 15.2812 95.457 14.4023 95.0977 13.3711C94.7461 12.3398 94.5703 11.1758 94.5703 9.87891V9.07031C94.5703 7.76562 94.7461 6.60156 95.0977 5.57812C95.4492 4.54688 95.9453 3.66797 96.5859 2.94141C97.2344 2.21484 98 1.66016 98.8828 1.27734C99.7734 0.894531 100.754 0.703125 101.824 0.703125C102.902 0.703125 103.883 0.894531 104.766 1.27734C105.656 1.66016 106.422 2.21484 107.062 2.94141C107.711 3.66797 108.211 4.54688 108.562 5.57812C108.922 6.60156 109.102 7.76562 109.102 9.07031ZM105.551 9.87891V9.04688C105.551 8.14062 105.469 7.34375 105.305 6.65625C105.141 5.96875 104.898 5.39062 104.578 4.92188C104.258 4.45312 103.867 4.10156 103.406 3.86719C102.945 3.625 102.418 3.50391 101.824 3.50391C101.23 3.50391 100.703 3.625 100.242 3.86719C99.7891 4.10156 99.4023 4.45312 99.082 4.92188C98.7695 5.39062 98.5312 5.96875 98.3672 6.65625C98.2031 7.34375 98.1211 8.14062 98.1211 9.04688V9.87891C98.1211 10.7773 98.2031 11.5742 98.3672 12.2695C98.5312 12.957 98.7734 13.5391 99.0938 14.0156C99.4141 14.4844 99.8047 14.8398 100.266 15.082C100.727 15.3242 101.254 15.4453 101.848 15.4453C102.441 15.4453 102.969 15.3242 103.43 15.082C103.891 14.8398 104.277 14.4844 104.59 14.0156C104.902 13.5391 105.141 12.957 105.305 12.2695C105.469 11.5742 105.551 10.7773 105.551 9.87891ZM121.055 0.9375H124.559V12.2109C124.559 13.5234 124.277 14.6289 123.715 15.5273C123.16 16.4258 122.391 17.1016 121.406 17.5547C120.43 18.0078 119.305 18.2344 118.031 18.2344C116.758 18.2344 115.625 18.0078 114.633 17.5547C113.648 17.1016 112.875 16.4258 112.312 15.5273C111.758 14.6289 111.48 13.5234 111.48 12.2109V0.9375H114.996V12.2109C114.996 12.9766 115.117 13.6016 115.359 14.0859C115.602 14.5703 115.949 14.9258 116.402 15.1523C116.863 15.3789 117.406 15.4922 118.031 15.4922C118.672 15.4922 119.215 15.3789 119.66 15.1523C120.113 14.9258 120.457 14.5703 120.691 14.0859C120.934 13.6016 121.055 12.9766 121.055 12.2109V0.9375ZM141.34 0.9375V18H137.824L130.969 6.5625V18H127.453V0.9375H130.969L137.836 12.3867V0.9375H141.34ZM149.637 18H145.922L145.945 15.2578H149.637C150.559 15.2578 151.336 15.0508 151.969 14.6367C152.602 14.2148 153.078 13.6016 153.398 12.7969C153.727 11.9922 153.891 11.0195 153.891 9.87891V9.04688C153.891 8.17188 153.797 7.40234 153.609 6.73828C153.43 6.07422 153.16 5.51562 152.801 5.0625C152.441 4.60938 152 4.26953 151.477 4.04297C150.953 3.80859 150.352 3.69141 149.672 3.69141H145.852V0.9375H149.672C150.812 0.9375 151.855 1.13281 152.801 1.52344C153.754 1.90625 154.578 2.45703 155.273 3.17578C155.969 3.89453 156.504 4.75391 156.879 5.75391C157.262 6.74609 157.453 7.85156 157.453 9.07031V9.87891C157.453 11.0898 157.262 12.1953 156.879 13.1953C156.504 14.1953 155.969 15.0547 155.273 15.7734C154.586 16.4844 153.762 17.0352 152.801 17.4258C151.848 17.8086 150.793 18 149.637 18ZM147.914 0.9375V18H144.398V0.9375H147.914ZM9.15234 38.9375V56H5.64844V38.9375H9.15234ZM14.4023 38.9375V41.6914H0.480469V38.9375H14.4023ZM27.7852 45.8867V48.6289H18.8789V45.8867H27.7852ZM19.9219 38.9375V56H16.4062V38.9375H19.9219ZM30.293 38.9375V56H26.7891V38.9375H30.293ZM42.7734 38.9375H46.2773V50.2109C46.2773 51.5234 45.9961 52.6289 45.4336 53.5273C44.8789 54.4258 44.1094 55.1016 43.125 55.5547C42.1484 56.0078 41.0234 56.2344 39.75 56.2344C38.4766 56.2344 37.3438 56.0078 36.3516 55.5547C35.3672 55.1016 34.5938 54.4258 34.0312 53.5273C33.4766 52.6289 33.1992 51.5234 33.1992 50.2109V38.9375H36.7148V50.2109C36.7148 50.9766 36.8359 51.6016 37.0781 52.0859C37.3203 52.5703 37.668 52.9258 38.1211 53.1523C38.582 53.3789 39.125 53.4922 39.75 53.4922C40.3906 53.4922 40.9336 53.3789 41.3789 53.1523C41.832 52.9258 42.1758 52.5703 42.4102 52.0859C42.6523 51.6016 42.7734 50.9766 42.7734 50.2109V38.9375ZM50.7773 38.9375H53.7539L58.1367 51.4648L62.5195 38.9375H65.4961L59.332 56H56.9414L50.7773 38.9375ZM49.1719 38.9375H52.1367L52.6758 51.1484V56H49.1719V38.9375ZM64.1367 38.9375H67.1133V56H63.5977V51.1484L64.1367 38.9375ZM76.875 48.5117H72.4922L72.4688 46.0977H76.1484C76.7969 46.0977 77.3281 46.0156 77.7422 45.8516C78.1562 45.6797 78.4648 45.4336 78.668 45.1133C78.8789 44.7852 78.9844 44.3867 78.9844 43.918C78.9844 43.3867 78.8828 42.957 78.6797 42.6289C78.4844 42.3008 78.1758 42.0625 77.7539 41.9141C77.3398 41.7656 76.8047 41.6914 76.1484 41.6914H73.7109V56H70.1953V38.9375H76.1484C77.1406 38.9375 78.0273 39.0312 78.8086 39.2188C79.5977 39.4062 80.2656 39.6914 80.8125 40.0742C81.3594 40.457 81.7773 40.9414 82.0664 41.5273C82.3555 42.1055 82.5 42.793 82.5 43.5898C82.5 44.293 82.3398 44.9414 82.0195 45.5352C81.707 46.1289 81.2109 46.6133 80.5312 46.9883C79.8594 47.3633 78.9805 47.5703 77.8945 47.6094L76.875 48.5117ZM76.7227 56H71.5312L72.9023 53.2578H76.7227C77.3398 53.2578 77.8438 53.1602 78.2344 52.9648C78.625 52.7617 78.9141 52.4883 79.1016 52.1445C79.2891 51.8008 79.3828 51.4062 79.3828 50.9609C79.3828 50.4609 79.2969 50.0273 79.125 49.6602C78.9609 49.293 78.6953 49.0117 78.3281 48.8164C77.9609 48.6133 77.4766 48.5117 76.875 48.5117H73.4883L73.5117 46.0977H77.7305L78.5391 47.0469C79.5781 47.0312 80.4141 47.2148 81.0469 47.5977C81.6875 47.9727 82.1523 48.4609 82.4414 49.0625C82.7383 49.6641 82.8867 50.3086 82.8867 50.9961C82.8867 52.0898 82.6484 53.0117 82.1719 53.7617C81.6953 54.5039 80.9961 55.0625 80.0742 55.4375C79.1602 55.8125 78.043 56 76.7227 56ZM99.4102 38.9375V56H95.8945L89.0391 44.5625V56H85.5234V38.9375H89.0391L95.9062 50.3867V38.9375H99.4102ZM109.617 41.8555L104.977 56H101.238L107.578 38.9375H109.957L109.617 41.8555ZM113.473 56L108.82 41.8555L108.445 38.9375H110.848L117.223 56H113.473ZM113.262 49.6484V52.4023H104.25V49.6484H113.262ZM122.543 38.9375V56H119.039V38.9375H122.543ZM136.805 53.2578V56H128.215V53.2578H136.805ZM129.352 38.9375V56H125.836V38.9375H129.352Z" fill="black"/>
</svg>
