<svg width="194" height="218" viewBox="0 0 194 218" fill="none" xmlns="http://www.w3.org/2000/svg">
<path d="M35.587 29.3593C35.587 21.0556 38.256 14.2348 43.5941 8.89673C48.9321 2.96557 55.7529 0 64.0566 0C72.3602 0 79.181 2.96557 84.5191 8.89673C89.8571 14.2348 92.5262 21.0556 92.5262 29.3593L92.5262 82.7397C92.5262 107.651 87.7812 132.265 78.2914 156.583C68.8015 181.494 52.7874 201.956 30.2489 217.97L0 188.611C11.8623 176.156 20.7591 161.328 26.6902 144.127C32.6214 126.927 35.587 106.464 35.587 82.7397V29.3593Z" fill="#4C4D4E" fill-opacity="0.07"/>
<path d="M137.031 29.3593C137.031 21.0556 139.7 14.2348 145.038 8.89673C150.376 2.96557 157.197 0 165.5 0C173.804 0 180.625 2.96557 185.963 8.89673C191.301 14.2348 193.97 21.0556 193.97 29.3593V82.7397C193.97 107.651 189.225 132.265 179.735 156.583C170.245 181.494 154.231 201.956 131.693 217.97L101.444 188.611C113.306 176.156 122.203 161.328 128.134 144.127C134.065 126.927 137.031 106.464 137.031 82.7397V29.3593Z" fill="#4C4D4E" fill-opacity="0.07"/>
</svg>
